<svg width="180" height="180" viewBox="0 0 180 180" fill="none" xmlns="http://www.w3.org/2000/svg">
<style>
  @keyframes drop-fall {
    0%   { transform: translateY(-4px); opacity: 0; }
    20%  { opacity: 0.7; }
    80%  { opacity: 0.7; }
    100% { transform: translateY(4px); opacity: 0; }
  }
  #drop1 { animation: drop-fall 3s ease-in-out infinite; animation-delay: 0s; }
  #drop2 { animation: drop-fall 3s ease-in-out infinite; animation-delay: 1s; }
  #drop3 { animation: drop-fall 3s ease-in-out infinite; animation-delay: 2s; }
</style>
<path d="M61 121.021C70.6667 120.619 90 125.85 90 149.992C80.3333 150.234 61 144.778 61 121.021Z" fill="url(#paint0_linear_251_2865)"/>
<path d="M90.0203 145C89.6318 135.667 94.6823 117 117.993 117C118.226 126.333 112.958 145 90.0203 145Z" fill="url(#paint1_linear_251_2865)"/>
<path d="M89.883 105.252L89.8822 165.252" stroke="#A9B9FA" stroke-width="1.76593"/>
<path d="M89.7332 73.0151C96.981 79.6837 107.132 97.3653 89.7538 114.744C82.6217 107.959 72.6328 90.1155 89.7332 73.0151Z" fill="url(#paint2_linear_251_2865)"/>
<path id="drop1" d="M81 59.5122C81 63.0953 78.0899 66 74.5 66C70.9101 66 68 63.0953 68 59.5122C68 55.929 74.5 47 74.5 47C74.5 47 81 55.929 81 59.5122Z" fill="white"/>
<path id="drop2" d="M122 94.4999C122 98.3659 118.866 101.5 115 101.5C111.134 101.5 108 98.3659 108 94.4999C108 90.6339 115 81 115 81C115 81 122 90.6339 122 94.4999Z" fill="white"/>
<path id="drop3" d="M66 92.4999C66 96.3659 62.866 99.4999 59 99.4999C55.134 99.4999 52 96.3659 52 92.4999C52 88.6339 59 79 59 79C59 79 66 88.6339 66 92.4999Z" fill="white"/>
<path d="M132 174H99.0226H81C83.6842 170.667 93.0406 164 108.992 164C118.579 164 130.977 170.667 132 174Z" fill="url(#paint3_linear_251_2865)"/>
<path d="M95.0749 43.832L119.429 55.2525L127.145 73.5422L91.2387 46.0468L95.0749 43.832Z" fill="#A9B9FA" stroke="#A9B9FA"/>
<path d="M143.486 21.7292C147.139 19.1048 151.685 18.0386 156.123 18.7656C160.562 19.4927 164.531 21.9535 167.155 25.6064C169.78 29.2592 170.845 33.8052 170.118 38.2439C169.391 42.6825 166.931 46.6512 163.278 49.2757L161.654 50.4425L160.487 48.818L143.028 24.5205L141.862 22.896L143.486 21.7292ZM155.007 34.3356L162.477 44.7351C164.421 42.8197 165.725 40.3246 166.171 37.5975C166.727 34.2056 165.912 30.7313 163.906 27.94C161.901 25.1489 158.869 23.2688 155.477 22.7132C152.75 22.2665 149.971 22.7067 147.535 23.938L155.007 34.3356Z" fill="#A9B9FA"/>
<path d="M114.72 52.5076L119.815 54.8818L128.34 75.0863L119.706 68.2929L114.72 52.5076Z" fill="#4061E7" fill-opacity="0.4"/>
<path d="M144.041 14.7762L172.635 53.6459L130.024 78.247L110.659 34.0492L144.041 14.7762Z" fill="#A9B9FA" stroke="#A9B9FA"/>
<rect x="1.5" y="169.5" width="64" height="3" stroke="url(#paint4_linear_251_2865)" stroke-width="3"/>
<path d="M80.7534 163C92.2603 163 100.443 170.333 103 174H47C51.9096 169.145 60.2968 169.195 63.8767 169.828C65.6667 167.552 74.3096 163 80.7534 163Z" fill="url(#paint5_linear_251_2865)"/>
<defs>
<linearGradient id="paint0_linear_251_2865" x1="78.5129" y1="150.125" x2="78.5129" y2="119.715" gradientUnits="userSpaceOnUse">
<stop stop-color="#A9B9FA"/>
<stop offset="1" stop-color="#889FF9"/>
</linearGradient>
<linearGradient id="paint1_linear_251_2865" x1="118.121" y1="128.091" x2="88.7592" y2="128.091" gradientUnits="userSpaceOnUse">
<stop stop-color="#A9B9FA"/>
<stop offset="1" stop-color="#889FF9"/>
</linearGradient>
<linearGradient id="paint2_linear_251_2865" x1="81.3897" y1="106.571" x2="103.279" y2="84.681" gradientUnits="userSpaceOnUse">
<stop stop-color="#A9B9FA"/>
<stop offset="1" stop-color="#889FF9"/>
</linearGradient>
<linearGradient id="paint3_linear_251_2865" x1="132.22" y1="167.961" x2="102.5" y2="168" gradientUnits="userSpaceOnUse">
<stop stop-color="white"/>
<stop offset="1" stop-color="#E1E5F5"/>
</linearGradient>
<linearGradient id="paint4_linear_251_2865" x1="117.5" y1="173.523" x2="19.2487" y2="213.294" gradientUnits="userSpaceOnUse">
<stop stop-color="#4061E7" stop-opacity="0.8"/>
<stop offset="1" stop-color="white" stop-opacity="0"/>
</linearGradient>
<linearGradient id="paint5_linear_251_2865" x1="103.242" y1="167.357" x2="44.5183" y2="167.357" gradientUnits="userSpaceOnUse">
<stop stop-color="white"/>
<stop offset="1" stop-color="#E1E5F5"/>
</linearGradient>
</defs>
</svg>
