<svg width="17" height="17" viewBox="0 0 17 17" fill="none" xmlns="http://www.w3.org/2000/svg">
<path fill-rule="evenodd" clip-rule="evenodd" d="M2.5 4.5V13.5H3.7L10.8 6.47L11.32 5.95L11.85 6.45L15.5 9.94V4.5H2.5ZM15.5 13.5H5.83L11.34 8.05L15.48 12L15.5 11.98V13.5ZM2 3C1.73478 3 1.48043 3.10536 1.29289 3.29289C1.10536 3.48043 1 3.73478 1 4L1 14C1 14.2652 1.10536 14.5196 1.29289 14.7071C1.48043 14.8946 1.73478 15 2 15H16C16.2652 15 16.5196 14.8946 16.7071 14.7071C16.8946 14.5196 17 14.2652 17 14V4C17 3.73478 16.8946 3.48043 16.7071 3.29289C16.5196 3.10536 16.2652 3 16 3H2ZM5.5 9C5.89782 9 6.27936 8.84196 6.56066 8.56066C6.84196 8.27936 7 7.89782 7 7.5C7 7.10218 6.84196 6.72064 6.56066 6.43934C6.27936 6.15804 5.89782 6 5.5 6C5.10218 6 4.72064 6.15804 4.43934 6.43934C4.15804 6.72064 4 7.10218 4 7.5C4 7.89782 4.15804 8.27936 4.43934 8.56066C4.72064 8.84196 5.10218 9 5.5 9Z" fill="#5B79F1"/>
</svg>
