<svg width="17" height="17" viewBox="0 0 17 17" fill="none" xmlns="http://www.w3.org/2000/svg">
<g clip-path="url(#clip0_248_2596)">
<path fill-rule="evenodd" clip-rule="evenodd" d="M15.5 9C15.5 10.7239 14.8152 12.3772 13.5962 13.5962C12.3772 14.8152 10.7239 15.5 9 15.5C7.27609 15.5 5.62279 14.8152 4.40381 13.5962C3.18482 12.3772 2.5 10.7239 2.5 9C2.5 7.27609 3.18482 5.62279 4.40381 4.40381C5.62279 3.18482 7.27609 2.5 9 2.5C10.7239 2.5 12.3772 3.18482 13.5962 4.40381C14.8152 5.62279 15.5 7.27609 15.5 9ZM17 9C17 11.1217 16.1571 13.1566 14.6569 14.6569C13.1566 16.1571 11.1217 17 9 17C6.87827 17 4.84344 16.1571 3.34315 14.6569C1.84285 13.1566 1 11.1217 1 9C1 6.87827 1.84285 4.84344 3.34315 3.34315C4.84344 1.84285 6.87827 1 9 1C11.1217 1 13.1566 1.84285 14.6569 3.34315C16.1571 4.84344 17 6.87827 17 9ZM9 6.75C8.15 6.75 7.75 7.224 7.75 7.667H6.25C6.25 6.109 7.64 5.25 9 5.25C10.36 5.25 11.75 6.11 11.75 7.667C11.75 8.616 10.99 9.251 10.244 9.531C10.0953 9.58296 9.961 9.6693 9.852 9.783C9.769 9.875 9.75 9.947 9.75 10V10.333H8.25V10C8.25 8.993 9.068 8.37 9.716 8.127C9.931 8.047 10.076 7.942 10.16 7.849C10.24 7.76 10.25 7.699 10.25 7.667C10.25 7.224 9.85 6.75 9 6.75ZM10 12C10 12.2652 9.89464 12.5196 9.70711 12.7071C9.51957 12.8946 9.26522 13 9 13C8.73478 13 8.48043 12.8946 8.29289 12.7071C8.10536 12.5196 8 12.2652 8 12C8 11.7348 8.10536 11.4804 8.29289 11.2929C8.48043 11.1054 8.73478 11 9 11C9.26522 11 9.51957 11.1054 9.70711 11.2929C9.89464 11.4804 10 11.7348 10 12Z" fill="#5B79F1"/>
</g>
<defs>
<clipPath id="clip0_248_2596">
<rect width="16" height="16" fill="white" transform="translate(1 1)"/>
</clipPath>
</defs>
</svg>
