<svg width="17" height="17" viewBox="0 0 17 17" fill="none" xmlns="http://www.w3.org/2000/svg">
<g clip-path="url(#clip0_248_2524)">
<path fill-rule="evenodd" clip-rule="evenodd" d="M9.75 1V4H8.25V1H9.75ZM9 11.5C9.66304 11.5 10.2989 11.2366 10.7678 10.7678C11.2366 10.2989 11.5 9.66304 11.5 9C11.5 8.33696 11.2366 7.70107 10.7678 7.23223C10.2989 6.76339 9.66304 6.5 9 6.5C8.33696 6.5 7.70107 6.76339 7.23223 7.23223C6.76339 7.70107 6.5 8.33696 6.5 9C6.5 9.66304 6.76339 10.2989 7.23223 10.7678C7.70107 11.2366 8.33696 11.5 9 11.5ZM9 13C10.0609 13 11.0783 12.5786 11.8284 11.8284C12.5786 11.0783 13 10.0609 13 9C13 7.93913 12.5786 6.92172 11.8284 6.17157C11.0783 5.42143 10.0609 5 9 5C7.93913 5 6.92172 5.42143 6.17157 6.17157C5.42143 6.92172 5 7.93913 5 9C5 10.0609 5.42143 11.0783 6.17157 11.8284C6.92172 12.5786 7.93913 13 9 13ZM7.15 4.3L5.65 1.7L4.35 2.45L5.85 5.05L7.15 4.3ZM12.35 1.7L10.85 4.3L12.15 5.05L13.65 2.45L12.35 1.7ZM14 9.75H17V8.25H14V9.75ZM16.3 5.65L13.7 7.15L12.96 5.85L15.56 4.35L16.3 5.65ZM4.3 7.15L1.7 5.65L2.45 4.35L5.05 5.85L4.3 7.15ZM9.74 14V17H8.24V14H9.74ZM13.64 15.55L12.14 12.95L10.84 13.71L12.34 16.31L13.64 15.55ZM5.84 12.95L4.34 15.55L5.64 16.3L7.14 13.7L5.84 12.95ZM1 9.76H4V8.26H1V9.76ZM5.04 12.16L2.44 13.66L1.7 12.36L4.3 10.86L5.04 12.16ZM15.55 13.66L12.95 12.16L13.7 10.86L16.3 12.36L15.55 13.66Z" fill="#5B79F1"/>
</g>
<defs>
<clipPath id="clip0_248_2524">
<rect width="16" height="16" fill="white" transform="translate(1 1)"/>
</clipPath>
</defs>
</svg>
