<svg width="17" height="17" viewBox="0 0 17 17" fill="none" xmlns="http://www.w3.org/2000/svg">
<path fill-rule="evenodd" clip-rule="evenodd" d="M14 8C14 9.476 13.168 11.017 11.95 12.44C10.93 13.63 9.768 14.59 9 15.165C8.232 14.589 7.07 13.63 6.05 12.44C4.832 11.017 4 9.476 4 8C4 4.929 6.272 2.75 9 2.75C11.728 2.75 14 4.929 14 8ZM15.5 8C15.5 12.02 11.064 15.54 9.521 16.643C9.36935 16.7525 9.18705 16.8114 9 16.8114C8.81295 16.8114 8.63065 16.7525 8.479 16.643C6.936 15.54 2.5 12.02 2.5 8C2.5 4.134 5.41 1.25 9 1.25C12.59 1.25 15.5 4.134 15.5 8ZM10.5 8C10.5 8.39782 10.342 8.77936 10.0607 9.06066C9.77936 9.34196 9.39782 9.5 9 9.5C8.60218 9.5 8.22064 9.34196 7.93934 9.06066C7.65804 8.77936 7.5 8.39782 7.5 8C7.5 7.60218 7.65804 7.22064 7.93934 6.93934C8.22064 6.65804 8.60218 6.5 9 6.5C9.39782 6.5 9.77936 6.65804 10.0607 6.93934C10.342 7.22064 10.5 7.60218 10.5 8ZM12 8C12 8.79565 11.6839 9.55871 11.1213 10.1213C10.5587 10.6839 9.79565 11 9 11C8.20435 11 7.44129 10.6839 6.87868 10.1213C6.31607 9.55871 6 8.79565 6 8C6 7.20435 6.31607 6.44129 6.87868 5.87868C7.44129 5.31607 8.20435 5 9 5C9.79565 5 10.5587 5.31607 11.1213 5.87868C11.6839 6.44129 12 7.20435 12 8Z" fill="#5B79F1"/>
</svg>
