<svg width="17" height="17" viewBox="0 0 17 17" fill="none" xmlns="http://www.w3.org/2000/svg">
<g clip-path="url(#clip0_248_2577)">
<path fill-rule="evenodd" clip-rule="evenodd" d="M2.94 16.5L1.19 14.5C1.06701 14.3625 0.999016 14.1845 0.999016 14C0.999016 13.8155 1.06701 13.6375 1.19 13.5L2.94 11.51L4.06 12.5L3.41 13.25H14.6L13.94 12.49L15.06 11.51L16.81 13.51C17.06 13.79 17.06 14.21 16.81 14.49L15.06 16.49L13.94 15.51L14.6 14.75H3.4L4.06 15.51L2.94 16.5ZM16 10.16H14.63V9.16C14.43 9.5 14.1633 9.75333 13.83 9.92C13.5035 10.082 13.1444 10.1675 12.78 10.17C12.14 10.17 11.6267 9.98667 11.24 9.62C11.0528 9.42874 10.9059 9.20185 10.808 8.95279C10.7101 8.70372 10.6632 8.43753 10.67 8.17C10.67 7.51667 10.9 7.01333 11.36 6.66C11.8133 6.3 12.4533 6.12 13.28 6.12H14.54V5.88C14.54 5.48 14.4367 5.19 14.23 5.01C14.03 4.83 13.75 4.74 13.39 4.74C13.09 4.74 12.84 4.80667 12.64 4.94C12.4739 5.03274 12.3462 5.18165 12.28 5.36H10.84C10.9467 4.82667 11.22 4.38667 11.66 4.04C12.169 3.66677 12.7892 3.47648 13.42 3.5C14.22 3.5 14.8533 3.70667 15.32 4.12C15.7733 4.52 16 5.16 16 6.04V10.16ZM14.32 8.33C14.4667 8.13 14.54 7.89 14.54 7.61V7.21H13.36C12.9733 7.21 12.67 7.28333 12.45 7.43C12.344 7.49803 12.2584 7.59339 12.202 7.70602C12.1457 7.81866 12.1208 7.9444 12.13 8.07C12.13 8.35 12.2233 8.56333 12.41 8.71C12.61 8.84333 12.86 8.91 13.16 8.91C13.3733 8.91 13.5867 8.86333 13.8 8.77C14.02 8.67 14.1933 8.52333 14.32 8.33ZM3.92 8.2L3.17 10.17H1.33L4.77 1.5H6.57L10 10.17H8.23L7.5 8.2H3.92ZM5.7 3.38L4.45 6.73H6.95L5.7 3.38Z" fill="#5B79F1"/>
</g>
<defs>
<clipPath id="clip0_248_2577">
<rect width="16" height="16" fill="white" transform="translate(1 1)"/>
</clipPath>
</defs>
</svg>
