<svg width="17" height="17" viewBox="0 0 17 17" fill="none" xmlns="http://www.w3.org/2000/svg">
<path d="M6.18 3.15001C6.06407 3.06264 5.92501 3.0113 5.78012 3.00238C5.63523 2.99345 5.49091 3.02734 5.36514 3.09982C5.23937 3.1723 5.13769 3.28017 5.07276 3.41C5.00784 3.53984 4.98253 3.6859 5 3.83001L6.32 14.35C6.33852 14.4938 6.39889 14.6291 6.49361 14.7389C6.58834 14.8487 6.71324 14.9282 6.8528 14.9677C6.99236 15.0071 7.14043 15.0046 7.2786 14.9606C7.41678 14.9166 7.53897 14.8329 7.63 14.72L10.22 11.46L14.35 10.87C14.4938 10.8486 14.6281 10.7852 14.7362 10.6879C14.8442 10.5905 14.9212 10.4635 14.9574 10.3227C14.9937 10.1819 14.9877 10.0335 14.9401 9.89606C14.8926 9.75864 14.8056 9.63828 14.69 9.55001L6.18 3.15001Z" fill="#5B79F1"/>
</svg>
