<svg width="17" height="17" viewBox="0 0 17 17" fill="none" xmlns="http://www.w3.org/2000/svg">
<path fill-rule="evenodd" clip-rule="evenodd" d="M2 5.25C2 4.52065 2.28973 3.82118 2.80546 3.30546C3.32118 2.78973 4.02065 2.5 4.75 2.5H13.25C13.9793 2.5 14.6788 2.78973 15.1945 3.30546C15.7103 3.82118 16 4.52065 16 5.25V10.75C16 12.1 15.03 13.22 13.75 13.45V15.5C13.7498 15.636 13.7125 15.7695 13.6423 15.8859C13.572 16.0024 13.4714 16.0976 13.3512 16.1613C13.231 16.225 13.0957 16.2548 12.9599 16.2476C12.824 16.2403 12.6927 16.1962 12.58 16.12L8.77 13.5H4.75C4.02065 13.5 3.32118 13.2103 2.80546 12.6945C2.28973 12.1788 2 11.4793 2 10.75V5.25ZM6 9C6.26522 9 6.51957 8.89464 6.70711 8.70711C6.89464 8.51957 7 8.26522 7 8C7 7.73478 6.89464 7.48043 6.70711 7.29289C6.51957 7.10536 6.26522 7 6 7C5.73478 7 5.48043 7.10536 5.29289 7.29289C5.10536 7.48043 5 7.73478 5 8C5 8.26522 5.10536 8.51957 5.29289 8.70711C5.48043 8.89464 5.73478 9 6 9ZM10 8C10 8.26522 9.89464 8.51957 9.70711 8.70711C9.51957 8.89464 9.26522 9 9 9C8.73478 9 8.48043 8.89464 8.29289 8.70711C8.10536 8.51957 8 8.26522 8 8C8 7.73478 8.10536 7.48043 8.29289 7.29289C8.48043 7.10536 8.73478 7 9 7C9.26522 7 9.51957 7.10536 9.70711 7.29289C9.89464 7.48043 10 7.73478 10 8ZM12 9C12.2652 9 12.5196 8.89464 12.7071 8.70711C12.8946 8.51957 13 8.26522 13 8C13 7.73478 12.8946 7.48043 12.7071 7.29289C12.5196 7.10536 12.2652 7 12 7C11.7348 7 11.4804 7.10536 11.2929 7.29289C11.1054 7.48043 11 7.73478 11 8C11 8.26522 11.1054 8.51957 11.2929 8.70711C11.4804 8.89464 11.7348 9 12 9Z" fill="white"/>
</svg>
