<svg width="17" height="17" viewBox="0 0 17 17" fill="none" xmlns="http://www.w3.org/2000/svg">
<path fill-rule="evenodd" clip-rule="evenodd" d="M2.5 11.5V4.5H15.5V11.5H2.5ZM1 4C1 3.73478 1.10536 3.48043 1.29289 3.29289C1.48043 3.10536 1.73478 3 2 3H16C16.2652 3 16.5196 3.10536 16.7071 3.29289C16.8946 3.48043 17 3.73478 17 4V12C17 12.2652 16.8946 12.5196 16.7071 12.7071C16.5196 12.8946 16.2652 13 16 13H2C1.73478 13 1.48043 12.8946 1.29289 12.7071C1.10536 12.5196 1 12.2652 1 12V4ZM11.97 5.47L13.03 6.53L10.03 9.53L9.5 10.06L8.97 9.53L8 8.56L6.03 10.53L4.97 9.47L7.47 6.97L8 6.44L8.53 6.97L9.5 7.94L11.97 5.47ZM9 15.5C7.64 15.5 6.32667 15.55 5.06 15.65L4.94 14.15C7.64268 13.9424 10.3573 13.9424 13.06 14.15L12.94 15.65C11.6733 15.55 10.36 15.5 9 15.5Z" fill="#5B79F1"/>
</svg>
