<?xml version="1.0" encoding="UTF-8"?>
<svg id="Layer_1" xmlns="http://www.w3.org/2000/svg" version="1.1" viewBox="0 0 49.17 38">
  <!-- Generator: Adobe Illustrator 30.5.1, SVG Export Plug-In . SVG Version: 2.1.4 Build 3)  -->
  <defs>
    <style>
      .st0 {
        fill: #fff;
      }
    </style>
  </defs>
  <path class="st0" d="M8.28,20.69h0c1-1.5,2.01-2.99,3.02-4.48.66-.91,1.32-1.83,1.98-2.74.35-.49.54-1.07.54-1.67v-3.06s0-.07,0-.1V2.37c0-1.62-.82-2.35-2.65-2.36C8.35,0,5.53.05,2.71,0,.84-.03-.01,1.09,0,2.35c.02,2.01.03,4.02.03,6.03,0,.05,0,.11,0,.16,0,4.53,0,9.06,0,13.6,0,4.53,0,9.06,0,13.6,0,1.48.89,2.25,2.58,2.25,2.82,0,5.64,0,8.46,0,1.95,0,2.75-.7,2.75-2.44v-3.06c0-.6-.19-1.19-.54-1.67-1.65-2.29-3.3-4.57-4.95-6.86-.9-1.26-.91-1.97-.06-3.26h0Z"/>
  <path class="st0" d="M46.58,38c1,.01,1.83-.31,2.31-1.2.49-.9.3-1.74-.3-2.56h0c-5.06-7.01-10.09-14.04-15.15-21.04-1.17-1.62-2.91-1.57-4.03.09-1.07,1.58-2.13,3.17-3.19,4.76-.39.58-.37,1.34.03,1.91,3.43,4.77,6.85,9.53,10.29,14.29.59.82.79,1.66.3,2.56-.13.25-.34.48-.48.62-.23.22-.04.59.23.59"/>
  <path class="st0" d="M34.39,34.23h0c-2.53-3.5-5.05-7.01-7.57-10.52-2.52-3.51-5.04-7.02-7.57-10.52-.18-.25-.38-.46-.58-.64-.29-.24-.6-.4-.91-.48-.09-.02-.18-.04-.27-.05-.45-.05-.91.05-1.33.32-.34.21-.66.53-.94.94-.53.79-1.06,1.58-1.59,2.38s-1.06,1.59-1.59,2.38c0,0,0,.02-.02.03,0,.01-.02.03-.03.04-.18.27-.36.54-.54.81-.31.46-.62.93-.93,1.39-.05.07-.09.13-.13.2-.87,1.3-.86,2.03.06,3.29,1.84,2.56,3.69,5.12,5.53,7.67,1.24,1.72,2.47,3.44,3.7,5.17.67.95,1.43,1.38,2.58,1.35h9.98s.01,0,.02,0h.11c1,.01,1.83-.31,2.31-1.2.49-.9.3-1.74-.3-2.56h0Z"/>
</svg>