<svg width="280" height="180" viewBox="0 0 280 180" fill="none" xmlns="http://www.w3.org/2000/svg">
<g clip-path="url(#clip0_253_2895)">
<rect width="280" height="180" fill="url(#paint0_radial_253_2895)"/>
<g clip-path="url(#clip1_253_2895)">
<mask id="path-1-outside-1_253_2895" maskUnits="userSpaceOnUse" x="13" y="17" width="132" height="145" fill="black">
<rect fill="white" x="13" y="17" width="132" height="145"/>
<path d="M15 34.438C15 25.9118 21.9118 19 30.438 19H128.212C136.738 19 143.65 25.9118 143.65 34.438V144.562C143.65 153.088 136.738 160 128.212 160H30.438C21.9118 160 15 153.088 15 144.562V34.438Z"/>
</mask>
<rect width="128.65" height="77.1898" transform="translate(15 19)" fill="url(#paint1_linear_253_2895)"/>
<rect width="128.65" height="64.8394" transform="translate(15 96.1898)" fill="white"/>
<path d="M26.8334 118.272C26.3196 117.257 26.0627 116.101 26.0627 114.804C26.0627 113.495 26.3196 112.339 26.8334 111.336C27.3594 110.333 28.0812 109.55 28.9987 108.987C29.9284 108.412 30.9927 108.125 32.1916 108.125C33.2681 108.125 34.1917 108.314 34.9624 108.693C35.7331 109.073 36.3509 109.599 36.8158 110.272C37.2929 110.944 37.6171 111.721 37.7883 112.602H35.256C35.097 111.917 34.7545 111.366 34.2284 110.95C33.7024 110.535 33.0173 110.327 32.1732 110.327C31.4637 110.327 30.8337 110.51 30.2832 110.877C29.7449 111.244 29.3229 111.764 29.017 112.437C28.7112 113.097 28.5583 113.886 28.5583 114.804C28.5583 115.709 28.7112 116.498 29.017 117.171C29.3229 117.844 29.7449 118.364 30.2832 118.731C30.8337 119.098 31.4637 119.281 32.1732 119.281C33.0173 119.281 33.7085 119.086 34.2468 118.694C34.785 118.29 35.1276 117.758 35.2744 117.098H37.7883C37.6171 117.942 37.2929 118.694 36.8158 119.355C36.3509 120.015 35.7331 120.535 34.9624 120.915C34.1917 121.294 33.2681 121.483 32.1916 121.483C30.9927 121.483 29.9284 121.202 28.9987 120.639C28.0812 120.064 27.3594 119.275 26.8334 118.272ZM39.7472 119.061C39.3435 118.303 39.1416 117.428 39.1416 116.437C39.1416 115.446 39.3435 114.578 39.7472 113.831C40.1509 113.073 40.7075 112.486 41.417 112.07C42.1388 111.642 42.9646 111.428 43.8943 111.428C44.824 111.428 45.6437 111.642 46.3532 112.07C47.0627 112.486 47.6193 113.073 48.023 113.831C48.4267 114.578 48.6286 115.446 48.6286 116.437C48.6286 117.428 48.4267 118.303 48.023 119.061C47.6193 119.807 47.0627 120.395 46.3532 120.823C45.6437 121.251 44.824 121.465 43.8943 121.465C42.9646 121.465 42.1388 121.251 41.417 120.823C40.7075 120.395 40.1509 119.807 39.7472 119.061ZM46.2981 116.437C46.2981 115.532 46.0718 114.816 45.6192 114.29C45.1788 113.752 44.6038 113.483 43.8943 113.483C43.1848 113.483 42.6037 113.752 42.151 114.29C41.7106 114.816 41.4904 115.532 41.4904 116.437C41.4904 117.342 41.7106 118.064 42.151 118.602C42.6037 119.141 43.1848 119.41 43.8943 119.41C44.6038 119.41 45.1788 119.141 45.6192 118.602C46.0718 118.064 46.2981 117.342 46.2981 116.437ZM50.5158 107.886H52.8279V121.19H50.5158V107.886ZM55.3017 119.061C54.898 118.303 54.6961 117.428 54.6961 116.437C54.6961 115.446 54.898 114.578 55.3017 113.831C55.7054 113.073 56.262 112.486 56.9715 112.07C57.6933 111.642 58.519 111.428 59.4488 111.428C60.3785 111.428 61.1981 111.642 61.9077 112.07C62.6172 112.486 63.1738 113.073 63.5775 113.831C63.9812 114.578 64.1831 115.446 64.1831 116.437C64.1831 117.428 63.9812 118.303 63.5775 119.061C63.1738 119.807 62.6172 120.395 61.9077 120.823C61.1981 121.251 60.3785 121.465 59.4488 121.465C58.519 121.465 57.6933 121.251 56.9715 120.823C56.262 120.395 55.7054 119.807 55.3017 119.061ZM61.8526 116.437C61.8526 115.532 61.6263 114.816 61.1737 114.29C60.7333 113.752 60.1583 113.483 59.4488 113.483C58.7392 113.483 58.1582 113.752 57.7055 114.29C57.2651 114.816 57.0449 115.532 57.0449 116.437C57.0449 117.342 57.2651 118.064 57.7055 118.602C58.1582 119.141 58.7392 119.41 59.4488 119.41C60.1583 119.41 60.7333 119.141 61.1737 118.602C61.6263 118.064 61.8526 117.342 61.8526 116.437ZM66.0703 111.703H68.2906V113.299C68.5842 112.773 68.9573 112.363 69.41 112.07C69.8748 111.776 70.3947 111.629 70.9697 111.629H71.3551V113.795H70.9147C70.2051 113.795 69.6057 114.033 69.1164 114.51C68.627 114.975 68.3824 115.642 68.3824 116.511V121.19H66.0703V111.703ZM73.5409 120.658C72.8069 120.107 72.3787 119.391 72.2564 118.511H74.4951C74.5562 118.804 74.7581 119.061 75.1006 119.281C75.4432 119.489 75.8652 119.593 76.3668 119.593C76.8683 119.593 77.2598 119.495 77.5412 119.3C77.8348 119.104 77.9816 118.841 77.9816 118.511C77.9816 118.229 77.8715 118.003 77.6513 117.832C77.4433 117.648 77.058 117.52 76.4952 117.446L75.119 117.263C74.2015 117.141 73.5225 116.847 73.0821 116.382C72.6417 115.905 72.4215 115.287 72.4215 114.529C72.4215 113.905 72.5867 113.36 72.917 112.896C73.2473 112.431 73.6999 112.07 74.2749 111.813C74.8498 111.556 75.4982 111.428 76.22 111.428C76.9784 111.428 77.6329 111.556 78.1834 111.813C78.7339 112.07 79.1743 112.412 79.5046 112.841C79.8349 113.269 80.0429 113.746 80.1285 114.272H77.9082C77.8225 113.966 77.6329 113.727 77.3393 113.556C77.058 113.385 76.7032 113.299 76.275 113.299C75.7979 113.299 75.4126 113.403 75.119 113.611C74.8376 113.819 74.6969 114.082 74.6969 114.4C74.6969 114.682 74.807 114.896 75.0272 115.043C75.2474 115.189 75.6144 115.293 76.1282 115.354L77.5045 115.538C78.422 115.66 79.1132 115.985 79.578 116.511C80.0429 117.037 80.2753 117.673 80.2753 118.419C80.2753 119.043 80.1041 119.581 79.7615 120.034C79.4312 120.486 78.9725 120.841 78.3853 121.098C77.8103 121.343 77.1558 121.465 76.4218 121.465C75.2474 121.465 74.2871 121.196 73.5409 120.658Z" fill="url(#paint2_linear_253_2895)"/>
<path d="M25.292 134.69C25.292 132.757 26.859 131.19 28.792 131.19H103.792C105.725 131.19 107.292 132.757 107.292 134.69V134.69C107.292 136.623 105.725 138.19 103.792 138.19H28.792C26.859 138.19 25.292 136.623 25.292 134.69V134.69Z" fill="url(#paint3_linear_253_2895)"/>
<path d="M25.292 146.69C25.292 144.757 26.859 143.19 28.792 143.19H81.792C83.725 143.19 85.292 144.757 85.292 146.69V146.69C85.292 148.623 83.725 150.19 81.792 150.19H28.792C26.859 150.19 25.292 148.623 25.292 146.69V146.69Z" fill="url(#paint4_linear_253_2895)"/>
</g>
<path d="M30.438 19V20.0292H128.212V19V17.9708H30.438V19ZM143.65 34.438H142.62V144.562H143.65H144.679V34.438H143.65ZM128.212 160V158.971H30.438V160V161.029H128.212V160ZM15 144.562H16.0292V34.438H15H13.9708V144.562H15ZM30.438 160V158.971C22.4802 158.971 16.0292 152.52 16.0292 144.562H15H13.9708C13.9708 153.657 21.3434 161.029 30.438 161.029V160ZM143.65 144.562H142.62C142.62 152.52 136.169 158.971 128.212 158.971V160V161.029C137.306 161.029 144.679 153.657 144.679 144.562H143.65ZM128.212 19V20.0292C136.169 20.0292 142.62 26.4802 142.62 34.438H143.65H144.679C144.679 25.3434 137.306 17.9708 128.212 17.9708V19ZM30.438 19V17.9708C21.3434 17.9708 13.9708 25.3434 13.9708 34.438H15H16.0292C16.0292 26.4802 22.4802 20.0292 30.438 20.0292V19Z" fill="#A9B9FA" fill-opacity="0.4" mask="url(#path-1-outside-1_253_2895)"/>
<g clip-path="url(#clip2_253_2895)">
<mask id="path-6-outside-2_253_2895" maskUnits="userSpaceOnUse" x="154" y="17" width="132" height="145" fill="black">
<rect fill="white" x="154" y="17" width="132" height="145"/>
<path d="M156 34.438C156 25.9118 162.912 19 171.438 19H269.212C277.738 19 284.65 25.9118 284.65 34.438V144.562C284.65 153.088 277.738 160 269.212 160H171.438C162.912 160 156 153.088 156 144.562V34.438Z"/>
</mask>
<rect width="128.65" height="77.1898" transform="translate(156 19)" fill="url(#paint5_linear_253_2895)"/>
<path d="M185.88 33.28H195.61L214.51 82H204.57L200.51 70.8H180.56L176.5 82H166.98L185.88 33.28ZM190.5 43.5L183.5 62.68H197.5L190.5 43.5ZM249.162 82H241.112V77.24C239.946 79.2467 238.359 80.7167 236.352 81.65C234.346 82.5833 232.292 83.05 230.192 83.05C226.412 83.05 223.379 82 221.092 79.9C218.852 77.8 217.732 75.0233 217.732 71.57C217.732 67.8367 219.086 64.9433 221.792 62.89C224.499 60.8367 228.279 59.81 233.132 59.81H240.552V58.41C240.552 56.1233 239.946 54.4667 238.732 53.44C237.519 52.4133 235.862 51.9 233.762 51.9C231.989 51.9 230.519 52.2733 229.352 53.02C228.232 53.72 227.532 54.5367 227.252 55.47H218.782C219.389 52.39 220.999 49.8467 223.612 47.84C226.272 45.7867 229.726 44.76 233.972 44.76C238.686 44.76 242.396 45.95 245.102 48.33C247.809 50.6633 249.162 54.3267 249.162 59.32V82ZM239.292 72.55C240.132 71.43 240.552 70.0533 240.552 68.42V66.11H233.622C231.336 66.11 229.539 66.53 228.232 67.37C226.972 68.21 226.342 69.4467 226.342 71.08C226.342 72.6667 226.902 73.88 228.022 74.72C229.189 75.5133 230.659 75.91 232.432 75.91C233.692 75.91 234.952 75.63 236.212 75.07C237.472 74.51 238.499 73.67 239.292 72.55Z" fill="url(#paint6_linear_253_2895)" fill-opacity="0.4"/>
<rect width="128.65" height="64.8394" transform="translate(156 96.1898)" fill="white"/>
<path d="M171.246 110.565H166.989V108.418H177.963V110.565H173.705V121.19H171.246V110.565ZM182.385 121.465C181.406 121.465 180.562 121.263 179.852 120.859C179.155 120.444 178.617 119.856 178.238 119.098C177.858 118.339 177.669 117.44 177.669 116.4C177.669 115.446 177.852 114.596 178.219 113.85C178.598 113.104 179.137 112.516 179.834 112.088C180.531 111.648 181.363 111.428 182.33 111.428C183.712 111.428 184.776 111.874 185.522 112.767C186.281 113.66 186.66 114.853 186.66 116.345V117.189H179.999C180.195 118.78 180.996 119.575 182.403 119.575C182.856 119.575 183.235 119.502 183.541 119.355C183.847 119.208 184.054 119.018 184.165 118.786H186.477C186.256 119.606 185.779 120.26 185.045 120.749C184.324 121.226 183.437 121.465 182.385 121.465ZM184.403 115.52C184.379 114.859 184.189 114.327 183.834 113.923C183.492 113.507 182.984 113.299 182.311 113.299C181.675 113.299 181.155 113.495 180.751 113.886C180.36 114.266 180.109 114.81 179.999 115.52H184.403ZM190.659 116.199L187.521 111.703H190.292L192.218 114.62L194.09 111.703H196.732L193.576 116.309L197.063 121.19H194.292L192.035 117.868L189.815 121.19H187.19L190.659 116.199ZM199.003 113.685H197.462V111.703H199.003V108.822C199.799 108.785 200.569 108.657 201.316 108.437V111.703H203.187V113.685H201.316V117.942C201.316 118.835 201.719 119.281 202.527 119.281H203.187V121.263H201.994C201.04 121.263 200.3 121.006 199.774 120.492C199.26 119.966 199.003 119.202 199.003 118.199V113.685ZM218.911 117.465C218.911 118.321 218.697 119.049 218.268 119.648C217.84 120.248 217.247 120.707 216.489 121.025C215.742 121.33 214.886 121.483 213.92 121.483C212.439 121.483 211.234 121.141 210.305 120.456C209.375 119.771 208.769 118.823 208.488 117.612H210.947C211.106 118.138 211.442 118.56 211.956 118.878C212.482 119.196 213.124 119.355 213.883 119.355C214.617 119.355 215.222 119.208 215.699 118.914C216.177 118.621 216.415 118.211 216.415 117.685C216.415 117.367 216.348 117.098 216.213 116.878C216.079 116.645 215.828 116.449 215.461 116.29C215.094 116.119 214.562 115.978 213.864 115.868L212.433 115.63C211.234 115.422 210.335 115.043 209.736 114.492C209.149 113.929 208.855 113.122 208.855 112.07C208.855 111.262 209.069 110.565 209.497 109.978C209.925 109.379 210.506 108.92 211.24 108.602C211.987 108.284 212.819 108.125 213.736 108.125C215.069 108.125 216.189 108.443 217.094 109.079C217.999 109.703 218.55 110.614 218.746 111.813H216.287C216.164 111.287 215.883 110.895 215.443 110.639C215.014 110.382 214.458 110.253 213.773 110.253C213.026 110.253 212.433 110.4 211.993 110.694C211.552 110.975 211.332 111.366 211.332 111.868C211.332 112.308 211.497 112.651 211.828 112.896C212.158 113.14 212.8 113.342 213.754 113.501L215.131 113.74C217.651 114.156 218.911 115.397 218.911 117.465ZM221.529 113.685H219.987V111.703H221.529V108.822C222.324 108.785 223.095 108.657 223.841 108.437V111.703H225.713V113.685H223.841V117.942C223.841 118.835 224.245 119.281 225.052 119.281H225.713V121.263H224.52C223.566 121.263 222.825 121.006 222.299 120.492C221.786 119.966 221.529 119.202 221.529 118.199V113.685ZM231.168 124.952H228.709L230.269 121.19L226.525 111.703H229.149L231.535 118.492L233.865 111.703H236.342L231.168 124.952ZM237.731 107.886H240.043V121.19H237.731V107.886ZM246.628 121.465C245.649 121.465 244.805 121.263 244.095 120.859C243.398 120.444 242.86 119.856 242.48 119.098C242.101 118.339 241.912 117.44 241.912 116.4C241.912 115.446 242.095 114.596 242.462 113.85C242.841 113.104 243.38 112.516 244.077 112.088C244.774 111.648 245.606 111.428 246.572 111.428C247.955 111.428 249.019 111.874 249.765 112.767C250.524 113.66 250.903 114.853 250.903 116.345V117.189H244.242C244.438 118.78 245.239 119.575 246.646 119.575C247.099 119.575 247.478 119.502 247.784 119.355C248.089 119.208 248.297 119.018 248.407 118.786H250.72C250.499 119.606 250.022 120.26 249.288 120.749C248.567 121.226 247.68 121.465 246.628 121.465ZM248.646 115.52C248.622 114.859 248.432 114.327 248.077 113.923C247.735 113.507 247.227 113.299 246.554 113.299C245.918 113.299 245.398 113.495 244.994 113.886C244.603 114.266 244.352 114.81 244.242 115.52H248.646Z" fill="url(#paint7_linear_253_2895)" fill-opacity="0.5"/>
<path d="M166.292 134.69C166.292 132.757 167.859 131.19 169.792 131.19H244.792C246.725 131.19 248.292 132.757 248.292 134.69V134.69C248.292 136.623 246.725 138.19 244.792 138.19H169.792C167.859 138.19 166.292 136.623 166.292 134.69V134.69Z" fill="url(#paint8_linear_253_2895)" fill-opacity="0.4"/>
<path d="M166.292 146.69C166.292 144.757 167.859 143.19 169.792 143.19H222.792C224.725 143.19 226.292 144.757 226.292 146.69V146.69C226.292 148.623 224.725 150.19 222.792 150.19H169.792C167.859 150.19 166.292 148.623 166.292 146.69V146.69Z" fill="url(#paint9_linear_253_2895)" fill-opacity="0.4"/>
</g>
<path d="M171.438 19V20.0292H269.212V19V17.9708H171.438V19ZM284.65 34.438H283.62V144.562H284.65H285.679V34.438H284.65ZM269.212 160V158.971H171.438V160V161.029H269.212V160ZM156 144.562H157.029V34.438H156H154.971V144.562H156ZM171.438 160V158.971C163.48 158.971 157.029 152.52 157.029 144.562H156H154.971C154.971 153.657 162.343 161.029 171.438 161.029V160ZM284.65 144.562H283.62C283.62 152.52 277.169 158.971 269.212 158.971V160V161.029C278.306 161.029 285.679 153.657 285.679 144.562H284.65ZM269.212 19V20.0292C277.169 20.0292 283.62 26.4802 283.62 34.438H284.65H285.679C285.679 25.3434 278.306 17.9708 269.212 17.9708V19ZM171.438 19V17.9708C162.343 17.9708 154.971 25.3434 154.971 34.438H156H157.029C157.029 26.4802 163.48 20.0292 171.438 20.0292V19Z" fill="#A9B9FA" fill-opacity="0.05" mask="url(#path-6-outside-2_253_2895)"/>
</g>
<defs>
<radialGradient id="paint0_radial_253_2895" cx="0" cy="0" r="1" gradientUnits="userSpaceOnUse" gradientTransform="translate(125 95.5) rotate(78.6162) scale(75.9951 115.413)">
<stop stop-color="#E1E5F5"/>
<stop offset="1" stop-color="white"/>
</radialGradient>
<linearGradient id="paint1_linear_253_2895" x1="124.5" y1="2.5" x2="-5.97822e-06" y2="77" gradientUnits="userSpaceOnUse">
<stop stop-color="#E1E5F5"/>
<stop offset="1" stop-color="#A9B9FA"/>
</linearGradient>
<linearGradient id="paint2_linear_253_2895" x1="102.482" y1="122.904" x2="98.5044" y2="90.5357" gradientUnits="userSpaceOnUse">
<stop stop-color="#4061E7"/>
<stop offset="1" stop-color="#889FF9"/>
</linearGradient>
<linearGradient id="paint3_linear_253_2895" x1="107.646" y1="133.963" x2="21.6581" y2="133.963" gradientUnits="userSpaceOnUse">
<stop stop-color="#E1E5F5"/>
<stop offset="1" stop-color="#FAFAFA"/>
</linearGradient>
<linearGradient id="paint4_linear_253_2895" x1="85.5509" y1="145.963" x2="22.633" y2="145.963" gradientUnits="userSpaceOnUse">
<stop stop-color="#E1E5F5"/>
<stop offset="1" stop-color="#FAFAFA"/>
</linearGradient>
<linearGradient id="paint5_linear_253_2895" x1="141.5" y1="73.5" x2="-3.58022e-06" y2="77" gradientUnits="userSpaceOnUse">
<stop stop-color="white"/>
<stop offset="1" stop-color="#E1E5F5"/>
</linearGradient>
<linearGradient id="paint6_linear_253_2895" x1="270.516" y1="21.4939" x2="157.289" y2="78.5131" gradientUnits="userSpaceOnUse">
<stop stop-color="#4061E7" stop-opacity="0.3"/>
<stop offset="1" stop-color="#4061E7" stop-opacity="0.4"/>
</linearGradient>
<linearGradient id="paint7_linear_253_2895" x1="243.482" y1="122.904" x2="239.504" y2="90.5357" gradientUnits="userSpaceOnUse">
<stop stop-color="#889FF9"/>
<stop offset="1" stop-color="#C7D2FC"/>
</linearGradient>
<linearGradient id="paint8_linear_253_2895" x1="248.646" y1="133.963" x2="162.658" y2="133.963" gradientUnits="userSpaceOnUse">
<stop stop-color="#E1E5F5"/>
<stop offset="1" stop-color="#FAFAFA"/>
</linearGradient>
<linearGradient id="paint9_linear_253_2895" x1="226.551" y1="145.963" x2="163.633" y2="145.963" gradientUnits="userSpaceOnUse">
<stop stop-color="#E1E5F5"/>
<stop offset="1" stop-color="#FAFAFA"/>
</linearGradient>
<clipPath id="clip0_253_2895">
<rect width="280" height="180" fill="white"/>
</clipPath>
<clipPath id="clip1_253_2895">
<path d="M15 34.438C15 25.9118 21.9118 19 30.438 19H128.212C136.738 19 143.65 25.9118 143.65 34.438V144.562C143.65 153.088 136.738 160 128.212 160H30.438C21.9118 160 15 153.088 15 144.562V34.438Z" fill="white"/>
</clipPath>
<clipPath id="clip2_253_2895">
<path d="M156 34.438C156 25.9118 162.912 19 171.438 19H269.212C277.738 19 284.65 25.9118 284.65 34.438V144.562C284.65 153.088 277.738 160 269.212 160H171.438C162.912 160 156 153.088 156 144.562V34.438Z" fill="white"/>
</clipPath>
</defs>
</svg>
