<svg width="280" height="180" viewBox="0 0 280 180" fill="none" xmlns="http://www.w3.org/2000/svg">
<g clip-path="url(#clip0_250_2715)">
<rect width="280" height="180" fill="url(#paint0_radial_250_2715)"/>
<rect x="15" y="22" width="195" height="60" rx="30" fill="url(#paint1_linear_250_2715)"/>
<path d="M323.058 97H79.9423C63.9579 97 51 110.431 51 127C51 143.569 63.9579 157 79.9423 157H323.058C339.042 157 352 143.569 352 127C352 110.431 339.042 97 323.058 97Z" fill="white" stroke="#4061E7" stroke-opacity="0.04" stroke-width="1.94134"/>
<path d="M85 26H45C30.6406 26 19 37.6406 19 52C19 66.3594 30.6406 78 45 78H85C99.3594 78 111 66.3594 111 52C111 37.6406 99.3594 26 85 26Z" fill="white"/>
<path d="M43.5596 44.1371H49.1546C50.6352 44.1371 51.9307 44.4432 53.0412 45.0553C54.1658 45.6675 55.0414 46.5288 55.6678 47.6393C56.2942 48.7497 56.6074 50.0595 56.6074 51.5685C56.6074 53.0776 56.2942 54.3874 55.6678 55.4978C55.0414 56.6083 54.1658 57.4696 53.0412 58.0817C51.9307 58.6939 50.6352 59 49.1546 59H43.5596V44.1371ZM48.9837 56.5015C49.9091 56.5015 50.7206 56.3093 51.4182 55.9249C52.13 55.5405 52.6852 54.9782 53.0839 54.2379C53.4967 53.4976 53.7032 52.6078 53.7032 51.5685C53.7032 50.515 53.4967 49.6253 53.0839 48.8992C52.6852 48.1589 52.13 47.5965 51.4182 47.2122C50.7206 46.8278 49.9091 46.6356 48.9837 46.6356H46.4212V56.5015H48.9837ZM67.7845 59H65.3287V57.5479C64.9727 58.16 64.4887 58.6085 63.8765 58.8932C63.2644 59.178 62.638 59.3203 61.9973 59.3203C60.8442 59.3203 59.9188 59 59.2212 58.3594C58.5378 57.7187 58.1962 56.8716 58.1962 55.8181C58.1962 54.6792 58.609 53.7966 59.4347 53.1701C60.2605 52.5437 61.4136 52.2305 62.8942 52.2305H65.1578V51.8034C65.1578 51.1059 64.9727 50.6005 64.6026 50.2873C64.2325 49.974 63.7271 49.8174 63.0864 49.8174C62.5454 49.8174 62.097 49.9313 61.7411 50.1591C61.3994 50.3727 61.1858 50.6218 61.1004 50.9065H58.5165C58.7016 49.9669 59.1927 49.191 59.99 48.5789C60.8014 47.9525 61.855 47.6393 63.1505 47.6393C64.5884 47.6393 65.7202 48.0023 66.5459 48.7284C67.3716 49.4402 67.7845 50.5577 67.7845 52.0811V59ZM64.7734 56.1171C65.0297 55.7754 65.1578 55.3555 65.1578 54.8572V54.1525H63.0437C62.3461 54.1525 61.798 54.2806 61.3994 54.5369C61.015 54.7931 60.8228 55.1704 60.8228 55.6687C60.8228 56.1527 60.9936 56.5228 61.3353 56.7791C61.6912 57.0211 62.1397 57.1421 62.6807 57.1421C63.0651 57.1421 63.4494 57.0567 63.8338 56.8859C64.2182 56.715 64.5314 56.4588 64.7734 56.1171ZM70.5172 47.9596H73.1011V49.8174C73.4428 49.2053 73.877 48.7284 74.4038 48.3867C74.9448 48.045 75.5498 47.8742 76.2189 47.8742H76.6674V50.394H76.1549C75.3291 50.394 74.6316 50.6716 74.0621 51.2269C73.4926 51.7678 73.2079 52.5437 73.2079 53.5545V59H70.5172V47.9596ZM78.6295 43.5178H81.3202V52.3587L85.4844 47.9596H88.709L83.7547 53.1701L89.0507 59H85.6766L81.3202 54.067V59H78.6295V43.5178Z" fill="url(#paint2_linear_250_2715)"/>
<path d="M136.401 44.1371H139.263V56.5015H146.844V59H139.263H136.401V44.1371ZM149.074 47.9596H151.764V59H149.074V47.9596ZM149.244 43.7954C149.572 43.468 149.963 43.3042 150.419 43.3042C150.875 43.3042 151.266 43.468 151.593 43.7954C151.921 44.1228 152.085 44.5215 152.085 44.9913C152.085 45.4611 151.921 45.8597 151.593 46.1871C151.266 46.5003 150.875 46.6569 150.419 46.6569C149.963 46.6569 149.572 46.5003 149.244 46.1871C148.917 45.8597 148.753 45.4611 148.753 44.9913C148.753 44.5215 148.917 44.1228 149.244 43.7954ZM164.808 58.5729C164.808 60.2101 164.338 61.47 163.399 62.3527C162.473 63.2496 161.206 63.6981 159.598 63.6981C158.202 63.6981 157.035 63.3777 156.095 62.7371C155.17 62.1107 154.586 61.2992 154.344 60.3026H157.142C157.327 60.6158 157.619 60.8792 158.017 61.0928C158.416 61.3063 158.921 61.4131 159.533 61.4131C160.373 61.4131 161.014 61.1995 161.455 60.7724C161.911 60.3454 162.139 59.6834 162.139 58.7865V57.2916C161.754 57.8184 161.285 58.2312 160.729 58.5302C160.174 58.8149 159.541 58.9573 158.829 58.9573C157.875 58.9573 157.028 58.7153 156.288 58.2312C155.561 57.7472 154.985 57.0781 154.558 56.2239C154.145 55.3697 153.938 54.3945 153.938 53.2983C153.938 52.2021 154.145 51.2269 154.558 50.3727C154.985 49.5185 155.561 48.8494 156.288 48.3653C157.028 47.8813 157.875 47.6393 158.829 47.6393C159.569 47.6393 160.224 47.7959 160.793 48.1091C161.363 48.4223 161.84 48.8494 162.224 49.3904V47.9596H164.808V58.5729ZM162.267 53.2769C162.267 52.3088 162.003 51.5258 161.477 50.9279C160.95 50.3157 160.274 50.0096 159.448 50.0096C158.637 50.0096 157.967 50.3157 157.441 50.9279C156.928 51.5258 156.672 52.3088 156.672 53.2769C156.672 54.2592 156.928 55.0565 157.441 55.6687C157.967 56.2808 158.637 56.5869 159.448 56.5869C160.274 56.5869 160.95 56.2808 161.477 55.6687C162.003 55.0565 162.267 54.2592 162.267 53.2769ZM167.634 43.5178H170.325V49.1982C171.136 48.1589 172.218 47.6393 173.571 47.6393C174.368 47.6393 175.051 47.8315 175.621 48.2158C176.204 48.586 176.653 49.1127 176.966 49.7961C177.293 50.4794 177.457 51.2696 177.457 52.1665V59H174.766V52.5722C174.766 51.8034 174.588 51.1913 174.233 50.7357C173.891 50.2801 173.364 50.0523 172.652 50.0523C171.997 50.0523 171.442 50.273 170.987 50.7143C170.545 51.1557 170.325 51.7607 170.325 52.5295V59H167.634V43.5178ZM180.706 50.2659H178.912V47.9596H180.706V44.6069C181.632 44.5642 182.528 44.4147 183.397 44.1584V47.9596H185.575V50.2659H183.397V55.2202C183.397 56.2595 183.867 56.7791 184.806 56.7791H185.575V59.0854H184.187C183.077 59.0854 182.215 58.7865 181.603 58.1885C181.005 57.5763 180.706 56.6866 180.706 55.5192V50.2659Z" fill="white"/>
<path d="M83.3635 130.605C82.7656 129.423 82.4666 128.078 82.4666 126.569C82.4666 125.045 82.7656 123.7 83.3635 122.532C83.9757 121.365 84.8156 120.454 85.8834 119.799C86.9654 119.13 88.2039 118.795 89.5991 118.795C90.8519 118.795 91.9268 119.016 92.8237 119.457C93.7206 119.899 94.4395 120.511 94.9805 121.294C95.5357 122.077 95.913 122.981 96.1123 124.006H93.1654C92.9803 123.209 92.5817 122.568 91.9695 122.084C91.3573 121.6 90.5601 121.358 89.5778 121.358C88.752 121.358 88.0189 121.572 87.3782 121.999C86.7518 122.426 86.2607 123.031 85.9047 123.814C85.5488 124.583 85.3709 125.501 85.3709 126.569C85.3709 127.622 85.5488 128.54 85.9047 129.323C86.2607 130.106 86.7518 130.711 87.3782 131.138C88.0189 131.566 88.752 131.779 89.5778 131.779C90.5601 131.779 91.3644 131.551 91.9909 131.096C92.6173 130.626 93.0159 130.007 93.1867 129.238H96.1123C95.913 130.22 95.5357 131.096 94.9805 131.865C94.4395 132.633 93.7206 133.238 92.8237 133.68C91.9268 134.121 90.8519 134.342 89.5991 134.342C88.2039 134.342 86.9654 134.014 85.8834 133.359C84.8156 132.69 83.9757 131.772 83.3635 130.605ZM98.3919 131.523C97.9221 130.64 97.6872 129.622 97.6872 128.469C97.6872 127.316 97.9221 126.305 98.3919 125.437C98.8618 124.554 99.5095 123.871 100.335 123.387C101.175 122.888 102.136 122.639 103.218 122.639C104.3 122.639 105.254 122.888 106.08 123.387C106.905 123.871 107.553 124.554 108.023 125.437C108.493 126.305 108.728 127.316 108.728 128.469C108.728 129.622 108.493 130.64 108.023 131.523C107.553 132.391 106.905 133.075 106.08 133.573C105.254 134.071 104.3 134.32 103.218 134.32C102.136 134.32 101.175 134.071 100.335 133.573C99.5095 133.075 98.8618 132.391 98.3919 131.523ZM106.016 128.469C106.016 127.416 105.752 126.583 105.225 125.971C104.713 125.344 104.044 125.031 103.218 125.031C102.392 125.031 101.716 125.344 101.189 125.971C100.677 126.583 100.421 127.416 100.421 128.469C100.421 129.523 100.677 130.363 101.189 130.989C101.716 131.615 102.392 131.929 103.218 131.929C104.044 131.929 104.713 131.615 105.225 130.989C105.752 130.363 106.016 129.523 106.016 128.469ZM110.924 122.96H113.508V124.817C113.849 124.205 114.284 123.728 114.81 123.387C115.351 123.045 115.956 122.874 116.626 122.874H117.074V125.394H116.562C115.736 125.394 115.038 125.672 114.469 126.227C113.899 126.768 113.615 127.544 113.615 128.555V134H110.924V122.96ZM123.633 134.32C122.495 134.32 121.512 134.085 120.687 133.616C119.875 133.132 119.249 132.448 118.807 131.566C118.366 130.683 118.145 129.637 118.145 128.426C118.145 127.316 118.359 126.327 118.786 125.458C119.227 124.59 119.854 123.906 120.665 123.408C121.477 122.896 122.445 122.639 123.569 122.639C125.178 122.639 126.417 123.159 127.285 124.198C128.168 125.237 128.609 126.625 128.609 128.362V129.345H120.857C121.085 131.195 122.018 132.121 123.655 132.121C124.182 132.121 124.623 132.035 124.979 131.865C125.335 131.694 125.577 131.473 125.705 131.203H128.396C128.139 132.156 127.584 132.918 126.73 133.487C125.89 134.043 124.858 134.32 123.633 134.32ZM125.982 127.401C125.954 126.633 125.733 126.013 125.32 125.544C124.922 125.059 124.331 124.817 123.548 124.817C122.808 124.817 122.203 125.045 121.733 125.501C121.277 125.942 120.985 126.576 120.857 127.401H125.982Z" fill="#C7D2FC"/>
<rect x="140" y="101" width="125" height="52" rx="26" fill="url(#paint3_linear_250_2715)"/>
<path d="M192.771 130.605C192.173 129.423 191.874 128.078 191.874 126.569C191.874 125.045 192.173 123.7 192.771 122.532C193.383 121.365 194.223 120.454 195.291 119.799C196.373 119.13 197.611 118.795 199.006 118.795C200.259 118.795 201.334 119.016 202.231 119.457C203.128 119.899 203.847 120.511 204.388 121.294C204.943 122.077 205.32 122.981 205.519 124.006H202.573C202.387 123.209 201.989 122.568 201.377 122.084C200.764 121.6 199.967 121.358 198.985 121.358C198.159 121.358 197.426 121.572 196.785 121.999C196.159 122.426 195.668 123.031 195.312 123.814C194.956 124.583 194.778 125.501 194.778 126.569C194.778 127.622 194.956 128.54 195.312 129.323C195.668 130.106 196.159 130.711 196.785 131.138C197.426 131.566 198.159 131.779 198.985 131.779C199.967 131.779 200.772 131.551 201.398 131.096C202.024 130.626 202.423 130.007 202.594 129.238H205.519C205.32 130.22 204.943 131.096 204.388 131.865C203.847 132.633 203.128 133.238 202.231 133.68C201.334 134.121 200.259 134.342 199.006 134.342C197.611 134.342 196.373 134.014 195.291 133.359C194.223 132.69 193.383 131.772 192.771 130.605ZM207.799 131.523C207.329 130.64 207.094 129.622 207.094 128.469C207.094 127.316 207.329 126.305 207.799 125.437C208.269 124.554 208.917 123.871 209.742 123.387C210.582 122.888 211.543 122.639 212.625 122.639C213.707 122.639 214.661 122.888 215.487 123.387C216.313 123.871 216.96 124.554 217.43 125.437C217.9 126.305 218.135 127.316 218.135 128.469C218.135 129.622 217.9 130.64 217.43 131.523C216.96 132.391 216.313 133.075 215.487 133.573C214.661 134.071 213.707 134.32 212.625 134.32C211.543 134.32 210.582 134.071 209.742 133.573C208.917 133.075 208.269 132.391 207.799 131.523ZM215.423 128.469C215.423 127.416 215.159 126.583 214.633 125.971C214.12 125.344 213.451 125.031 212.625 125.031C211.8 125.031 211.123 125.344 210.597 125.971C210.084 126.583 209.828 127.416 209.828 128.469C209.828 129.523 210.084 130.363 210.597 130.989C211.123 131.615 211.8 131.929 212.625 131.929C213.451 131.929 214.12 131.615 214.633 130.989C215.159 130.363 215.423 129.523 215.423 128.469ZM220.395 131.523C219.925 130.64 219.69 129.622 219.69 128.469C219.69 127.316 219.925 126.305 220.395 125.437C220.865 124.554 221.513 123.871 222.338 123.387C223.178 122.888 224.139 122.639 225.221 122.639C226.303 122.639 227.257 122.888 228.083 123.387C228.909 123.871 229.556 124.554 230.026 125.437C230.496 126.305 230.731 127.316 230.731 128.469C230.731 129.622 230.496 130.64 230.026 131.523C229.556 132.391 228.909 133.075 228.083 133.573C227.257 134.071 226.303 134.32 225.221 134.32C224.139 134.32 223.178 134.071 222.338 133.573C221.513 133.075 220.865 132.391 220.395 131.523ZM228.019 128.469C228.019 127.416 227.755 126.583 227.229 125.971C226.716 125.344 226.047 125.031 225.221 125.031C224.396 125.031 223.719 125.344 223.193 125.971C222.68 126.583 222.424 127.416 222.424 128.469C222.424 129.523 222.68 130.363 223.193 130.989C223.719 131.615 224.396 131.929 225.221 131.929C226.047 131.929 226.716 131.615 227.229 130.989C227.755 130.363 228.019 129.523 228.019 128.469ZM232.927 118.518H235.618V134H232.927V118.518Z" fill="white"/>
<circle cx="174" cy="127" r="9" fill="url(#paint4_linear_250_2715)"/>
</g>
<defs>
<radialGradient id="paint0_radial_250_2715" cx="0" cy="0" r="1" gradientUnits="userSpaceOnUse" gradientTransform="translate(135.5 122) rotate(84.6442) scale(48.2105 106.614)">
<stop stop-color="#E1E5F5"/>
<stop offset="1" stop-color="white"/>
</radialGradient>
<linearGradient id="paint1_linear_250_2715" x1="210.841" y1="45.7663" x2="6.35845" y2="45.7663" gradientUnits="userSpaceOnUse">
<stop stop-color="#C7D2FC"/>
<stop offset="1" stop-color="#A9B9FA"/>
</linearGradient>
<linearGradient id="paint2_linear_250_2715" x1="76" y1="62" x2="64.0988" y2="25.9264" gradientUnits="userSpaceOnUse">
<stop stop-color="#4061E7"/>
<stop offset="1" stop-color="#889FF9"/>
</linearGradient>
<linearGradient id="paint3_linear_250_2715" x1="265.539" y1="121.597" x2="134.461" y2="121.597" gradientUnits="userSpaceOnUse">
<stop stop-color="#C7D2FC"/>
<stop offset="1" stop-color="#A9B9FA"/>
</linearGradient>
<linearGradient id="paint4_linear_250_2715" x1="177.857" y1="133.429" x2="166.723" y2="114.143" gradientUnits="userSpaceOnUse">
<stop stop-color="#4061E7"/>
<stop offset="1" stop-color="#889FF9"/>
</linearGradient>
<clipPath id="clip0_250_2715">
<rect width="280" height="180" fill="white"/>
</clipPath>
</defs>
</svg>
