<svg width="280" height="180" viewBox="0 0 280 180" fill="none" xmlns="http://www.w3.org/2000/svg">
<g clip-path="url(#clip0_254_2938)">
<rect width="280" height="180" fill="url(#paint0_radial_254_2938)"/>
<g clip-path="url(#clip1_254_2938)">
<mask id="path-1-outside-1_254_2938" maskUnits="userSpaceOnUse" x="74" y="13" width="183" height="224" fill="black">
<rect fill="white" x="74" y="13" width="183" height="224"/>
<path d="M76 36.4694C76 24.6122 85.6122 15 97.4694 15H233.878C245.736 15 255.348 24.6122 255.348 36.4694V213.531C255.348 225.388 245.736 235 233.878 235H97.4694C85.6122 235 76 225.388 76 213.531V36.4694Z"/>
</mask>
<rect width="179.348" height="119" transform="translate(76 15)" fill="url(#paint1_linear_254_2938)" fill-opacity="0.4"/>
<rect x="169.348" y="29" width="70.5435" height="70.5435" rx="14.1087" fill="white"/>
<path d="M223.431 40.7573C224.679 40.7573 225.875 41.2527 226.757 42.1347C227.639 43.0167 228.134 44.2129 228.134 45.4602V68.9747C228.134 70.2219 227.639 71.4181 226.757 72.3001C225.875 73.1821 224.679 73.6776 223.431 73.6776H214.025V83.0834C214.025 84.3306 213.53 85.5268 212.648 86.4088C211.766 87.2908 210.57 87.7863 209.323 87.7863H185.808C184.561 87.7863 183.365 87.2908 182.483 86.4088C181.601 85.5268 181.105 84.3306 181.105 83.0834V59.5689C181.105 58.3216 181.601 57.1254 182.483 56.2434C183.365 55.3614 184.561 54.866 185.808 54.866H195.214V45.4602C195.214 44.2129 195.709 43.0167 196.591 42.1347C197.473 41.2527 198.669 40.7573 199.917 40.7573H223.431ZM185.808 83.0834H209.323V59.5689H185.808V83.0834ZM199.917 54.866H209.323C210.57 54.866 211.766 55.3614 212.648 56.2434C213.53 57.1254 214.025 58.3216 214.025 59.5689V68.9747H223.431V45.4602H199.917V54.866Z" fill="url(#paint2_linear_254_2938)" fill-opacity="0.7"/>
<rect width="179.348" height="90.1714" transform="translate(76 134)" fill="white"/>
<path d="M92.4821 164.652C91.7505 163.24 91.3847 161.641 91.3847 159.854C91.3847 158.051 91.7505 156.452 92.4821 155.057C93.2306 153.662 94.2684 152.564 95.5954 151.765C96.9224 150.965 98.4535 150.565 100.189 150.565C102.162 150.565 103.838 151.042 105.216 151.994C106.594 152.93 107.53 154.257 108.023 155.975H104.502C104.195 155.278 103.676 154.716 102.945 154.291C102.213 153.849 101.295 153.628 100.189 153.628C99.134 153.628 98.1983 153.883 97.3817 154.393C96.5821 154.903 95.9612 155.627 95.5188 156.562C95.0765 157.481 94.8553 158.578 94.8553 159.854C94.8553 161.113 95.0765 162.21 95.5188 163.146C95.9612 164.082 96.5906 164.805 97.4072 165.315C98.2409 165.826 99.2106 166.081 100.316 166.081C101.235 166.081 102.043 165.902 102.741 165.545C103.438 165.171 103.983 164.677 104.374 164.065C104.765 163.435 104.961 162.738 104.961 161.972V161.666H100.163V158.782H108.355V161.232C108.355 162.729 108.023 164.073 107.36 165.264C106.713 166.455 105.778 167.399 104.553 168.097C103.345 168.794 101.899 169.143 100.214 169.143C98.445 169.143 96.8969 168.743 95.5699 167.944C94.2429 167.144 93.2136 166.047 92.4821 164.652ZM111.161 155.541H114.249V157.762C114.658 157.03 115.176 156.46 115.806 156.052C116.452 155.644 117.175 155.439 117.975 155.439H118.511V158.451H117.899C116.912 158.451 116.078 158.782 115.398 159.446C114.717 160.092 114.377 161.02 114.377 162.227V168.735H111.161V155.541ZM131.197 168.735H128.262V167C127.837 167.731 127.259 168.267 126.527 168.607C125.795 168.948 125.047 169.118 124.281 169.118C122.903 169.118 121.797 168.735 120.964 167.969C120.147 167.204 119.739 166.191 119.739 164.933C119.739 163.571 120.232 162.517 121.219 161.768C122.206 161.02 123.584 160.645 125.353 160.645H128.058V160.135C128.058 159.301 127.837 158.697 127.395 158.323C126.952 157.949 126.348 157.762 125.583 157.762C124.936 157.762 124.4 157.898 123.975 158.17C123.567 158.425 123.312 158.723 123.209 159.063H120.122C120.343 157.94 120.93 157.013 121.882 156.282C122.852 155.533 124.111 155.159 125.659 155.159C127.378 155.159 128.73 155.593 129.717 156.46C130.704 157.311 131.197 158.646 131.197 160.467V168.735ZM127.599 165.29C127.905 164.881 128.058 164.38 128.058 163.784V162.942H125.532C124.698 162.942 124.043 163.095 123.567 163.401C123.107 163.708 122.878 164.158 122.878 164.754C122.878 165.332 123.082 165.775 123.49 166.081C123.915 166.37 124.451 166.515 125.098 166.515C125.557 166.515 126.017 166.413 126.476 166.208C126.935 166.004 127.31 165.698 127.599 165.29ZM146.686 168.735H143.598V166.974C143.139 167.655 142.569 168.182 141.889 168.556C141.208 168.931 140.426 169.118 139.541 169.118C138.401 169.118 137.389 168.82 136.504 168.224C135.636 167.629 134.947 166.804 134.437 165.749C133.944 164.694 133.697 163.486 133.697 162.125C133.697 160.747 133.944 159.539 134.437 158.502C134.947 157.447 135.636 156.63 136.504 156.052C137.389 155.456 138.401 155.159 139.541 155.159C140.392 155.159 141.149 155.337 141.812 155.695C142.476 156.052 143.037 156.545 143.496 157.175V150.233H146.686V168.735ZM142.705 165.137C143.335 164.388 143.649 163.393 143.649 162.151C143.649 160.892 143.335 159.888 142.705 159.14C142.093 158.391 141.285 158.017 140.281 158.017C139.311 158.017 138.512 158.391 137.882 159.14C137.27 159.888 136.963 160.892 136.963 162.151C136.963 163.393 137.27 164.388 137.882 165.137C138.512 165.885 139.311 166.26 140.281 166.26C141.285 166.26 142.093 165.885 142.705 165.137ZM150.063 155.541H153.279V168.735H150.063V155.541ZM150.267 150.565C150.659 150.174 151.126 149.978 151.671 149.978C152.215 149.978 152.683 150.174 153.074 150.565C153.466 150.957 153.661 151.433 153.661 151.994C153.661 152.556 153.466 153.032 153.074 153.423C152.683 153.798 152.215 153.985 151.671 153.985C151.126 153.985 150.659 153.798 150.267 153.423C149.876 153.032 149.68 152.556 149.68 151.994C149.68 151.433 149.876 150.957 150.267 150.565ZM162.435 169.118C161.074 169.118 159.9 168.837 158.914 168.276C157.944 167.697 157.195 166.88 156.668 165.826C156.14 164.771 155.877 163.52 155.877 162.074C155.877 160.747 156.132 159.565 156.642 158.527C157.17 157.489 157.918 156.673 158.888 156.077C159.858 155.465 161.015 155.159 162.359 155.159C164.281 155.159 165.761 155.78 166.799 157.022C167.854 158.264 168.381 159.922 168.381 161.998V163.172H159.118C159.39 165.383 160.504 166.489 162.461 166.489C163.09 166.489 163.618 166.387 164.043 166.183C164.468 165.979 164.757 165.715 164.911 165.392H168.126C167.82 166.532 167.156 167.442 166.135 168.122C165.132 168.786 163.898 169.118 162.435 169.118ZM165.242 160.849C165.208 159.931 164.945 159.191 164.451 158.629C163.975 158.051 163.269 157.762 162.333 157.762C161.448 157.762 160.725 158.034 160.164 158.578C159.62 159.106 159.271 159.863 159.118 160.849H165.242ZM171.047 155.541H174.134V157.124C175.087 155.814 176.423 155.159 178.141 155.159C179.094 155.159 179.91 155.388 180.591 155.848C181.288 156.29 181.824 156.92 182.199 157.736C182.59 158.553 182.785 159.497 182.785 160.569V168.735H179.57V161.054C179.57 160.135 179.357 159.403 178.932 158.859C178.524 158.315 177.894 158.042 177.044 158.042C176.261 158.042 175.598 158.306 175.053 158.833C174.526 159.361 174.262 160.084 174.262 161.003V168.735H171.047V155.541ZM186.668 158.298H184.525V155.541H186.668V151.535C187.774 151.484 188.846 151.305 189.884 150.999V155.541H192.487V158.298H189.884V164.218C189.884 165.46 190.445 166.081 191.568 166.081H192.487V168.837H190.828C189.501 168.837 188.472 168.48 187.74 167.765C187.025 167.034 186.668 165.97 186.668 164.575V158.298ZM195.99 167.995C194.969 167.229 194.374 166.234 194.203 165.009H197.317C197.402 165.417 197.683 165.775 198.159 166.081C198.635 166.37 199.222 166.515 199.92 166.515C200.617 166.515 201.162 166.379 201.553 166.106C201.961 165.834 202.165 165.468 202.165 165.009C202.165 164.618 202.012 164.303 201.706 164.065C201.417 163.81 200.881 163.631 200.098 163.529L198.184 163.274C196.908 163.104 195.964 162.695 195.352 162.049C194.739 161.385 194.433 160.526 194.433 159.471C194.433 158.604 194.663 157.847 195.122 157.2C195.581 156.554 196.211 156.052 197.011 155.695C197.81 155.337 198.712 155.159 199.716 155.159C200.77 155.159 201.681 155.337 202.446 155.695C203.212 156.052 203.824 156.528 204.284 157.124C204.743 157.719 205.032 158.383 205.151 159.114H202.063C201.944 158.689 201.681 158.357 201.272 158.119C200.881 157.881 200.388 157.762 199.792 157.762C199.129 157.762 198.593 157.906 198.184 158.195C197.793 158.485 197.598 158.85 197.598 159.293C197.598 159.684 197.751 159.982 198.057 160.186C198.363 160.39 198.873 160.535 199.588 160.62L201.502 160.875C202.778 161.045 203.739 161.496 204.386 162.227C205.032 162.959 205.355 163.844 205.355 164.881C205.355 165.749 205.117 166.498 204.641 167.127C204.181 167.757 203.543 168.25 202.727 168.607C201.927 168.948 201.017 169.118 199.996 169.118C198.363 169.118 197.028 168.743 195.99 167.995Z" fill="url(#paint3_linear_254_2938)" fill-opacity="0.1"/>
</g>
<path d="M97.4694 15V16.4313H233.878V15V13.5687H97.4694V15ZM255.348 36.4694H253.917V213.531H255.348H256.779V36.4694H255.348ZM233.878 235V233.569H97.4694V235V236.431H233.878V235ZM76 213.531H77.4313V36.4694H76H74.5687V213.531H76ZM97.4694 235V233.569C86.4027 233.569 77.4313 224.597 77.4313 213.531H76H74.5687C74.5687 226.178 84.8217 236.431 97.4694 236.431V235ZM255.348 213.531H253.917C253.917 224.597 244.945 233.569 233.878 233.569V235V236.431C246.526 236.431 256.779 226.178 256.779 213.531H255.348ZM233.878 15V16.4313C244.945 16.4313 253.917 25.4027 253.917 36.4694H255.348H256.779C256.779 23.8217 246.526 13.5687 233.878 13.5687V15ZM97.4694 15V13.5687C84.8217 13.5687 74.5687 23.8217 74.5687 36.4694H76H77.4313C77.4313 25.4026 86.4026 16.4313 97.4694 16.4313V15Z" fill="#A9B9FA" fill-opacity="0.1" mask="url(#path-1-outside-1_254_2938)"/>
<path d="M15 124C15 109.641 26.6406 98 41 98H127C141.359 98 153 109.641 153 124V124C153 138.359 141.359 150 127 150H41C26.6406 150 15 138.359 15 124V124Z" fill="url(#paint4_linear_254_2938)"/>
<path d="M33.4006 127.605C32.8026 126.423 32.5037 125.078 32.5037 123.569C32.5037 122.045 32.8026 120.7 33.4006 119.532C34.0128 118.365 34.8527 117.454 35.9204 116.799C37.0024 116.13 38.241 115.795 39.6362 115.795C40.889 115.795 41.9638 116.016 42.8607 116.457C43.7576 116.899 44.4766 117.511 45.0176 118.294C45.5728 119.077 45.9501 119.981 46.1494 121.006H43.2024C43.0174 120.209 42.6187 119.568 42.0066 119.084C41.3944 118.6 40.5971 118.358 39.6148 118.358C38.7891 118.358 38.0559 118.572 37.4153 118.999C36.7889 119.426 36.2977 120.031 35.9418 120.814C35.5859 121.583 35.4079 122.501 35.4079 123.569C35.4079 124.622 35.5859 125.54 35.9418 126.323C36.2977 127.106 36.7889 127.711 37.4153 128.138C38.0559 128.566 38.7891 128.779 39.6148 128.779C40.5971 128.779 41.4015 128.551 42.0279 128.096C42.6543 127.626 43.0529 127.007 43.2238 126.238H46.1494C45.9501 127.22 45.5728 128.096 45.0176 128.865C44.4766 129.633 43.7576 130.238 42.8607 130.68C41.9638 131.121 40.889 131.342 39.6362 131.342C38.241 131.342 37.0024 131.014 35.9204 130.359C34.8527 129.69 34.0128 128.772 33.4006 127.605ZM48.429 128.523C47.9592 127.64 47.7243 126.622 47.7243 125.469C47.7243 124.316 47.9592 123.305 48.429 122.437C48.8988 121.554 49.5466 120.871 50.3723 120.387C51.2122 119.888 52.1732 119.639 53.2552 119.639C54.3372 119.639 55.291 119.888 56.1167 120.387C56.9424 120.871 57.5902 121.554 58.06 122.437C58.5298 123.305 58.7647 124.316 58.7647 125.469C58.7647 126.622 58.5298 127.64 58.06 128.523C57.5902 129.391 56.9424 130.075 56.1167 130.573C55.291 131.071 54.3372 131.32 53.2552 131.32C52.1732 131.32 51.2122 131.071 50.3723 130.573C49.5466 130.075 48.8988 129.391 48.429 128.523ZM56.0527 125.469C56.0527 124.416 55.7893 123.583 55.2625 122.971C54.75 122.344 54.0809 122.031 53.2552 122.031C52.4295 122.031 51.7532 122.344 51.2265 122.971C50.714 123.583 50.4577 124.416 50.4577 125.469C50.4577 126.523 50.714 127.363 51.2265 127.989C51.7532 128.615 52.4295 128.929 53.2552 128.929C54.0809 128.929 54.75 128.615 55.2625 127.989C55.7893 127.363 56.0527 126.523 56.0527 125.469ZM60.9609 119.96H63.5449V121.433C63.9292 120.864 64.4062 120.422 64.9756 120.109C65.5451 119.796 66.2 119.639 66.9403 119.639C67.9083 119.639 68.7554 119.888 69.4815 120.387C70.2218 120.871 70.7984 121.554 71.2112 122.437C71.6241 123.319 71.8305 124.337 71.8305 125.49C71.8305 126.629 71.6241 127.64 71.2112 128.523C70.7984 129.406 70.2218 130.096 69.4815 130.594C68.7554 131.078 67.9083 131.32 66.9403 131.32C66.2284 131.32 65.5949 131.171 65.0397 130.872C64.4845 130.573 64.0147 130.16 63.6303 129.633V135.378H60.9609V119.96ZM66.321 122.031C65.4953 122.031 64.819 122.344 64.2923 122.971C63.7655 123.597 63.5021 124.437 63.5021 125.49C63.5021 126.53 63.7655 127.363 64.2923 127.989C64.819 128.615 65.4953 128.929 66.321 128.929C67.1467 128.929 67.8158 128.615 68.3283 127.989C68.8408 127.363 69.0971 126.53 69.0971 125.49C69.0971 124.437 68.8408 123.597 68.3283 122.971C67.8158 122.344 67.1467 122.031 66.321 122.031ZM74.0157 119.96H76.7064V131H74.0157V119.96ZM74.1865 115.795C74.514 115.468 74.9055 115.304 75.3611 115.304C75.8166 115.304 76.2081 115.468 76.5356 115.795C76.863 116.123 77.0267 116.521 77.0267 116.991C77.0267 117.461 76.863 117.86 76.5356 118.187C76.2081 118.5 75.8166 118.657 75.3611 118.657C74.9055 118.657 74.514 118.5 74.1865 118.187C73.8591 117.86 73.6954 117.461 73.6954 116.991C73.6954 116.521 73.8591 116.123 74.1865 115.795ZM84.3688 131.32C83.2298 131.32 82.2475 131.085 81.4218 130.616C80.6103 130.132 79.9839 129.448 79.5426 128.566C79.1013 127.683 78.8806 126.637 78.8806 125.426C78.8806 124.316 79.0941 123.327 79.5212 122.458C79.9626 121.59 80.589 120.906 81.4004 120.408C82.2119 119.896 83.18 119.639 84.3047 119.639C85.9134 119.639 87.152 120.159 88.0204 121.198C88.9031 122.237 89.3444 123.625 89.3444 125.362V126.345H81.5926C81.8204 128.195 82.7529 129.121 84.3901 129.121C84.9169 129.121 85.3582 129.035 85.7141 128.865C86.07 128.694 86.312 128.473 86.4402 128.203H89.1309C88.8746 129.156 88.3194 129.918 87.4652 130.487C86.6253 131.043 85.5931 131.32 84.3688 131.32ZM86.7178 124.401C86.6893 123.633 86.4686 123.013 86.0558 122.544C85.6572 122.059 85.0664 121.817 84.2833 121.817C83.543 121.817 82.938 122.045 82.4682 122.501C82.0126 122.942 81.7208 123.576 81.5926 124.401H86.7178ZM101.804 131H99.22V129.527C98.8356 130.096 98.3587 130.537 97.7892 130.851C97.2198 131.164 96.5649 131.32 95.8246 131.32C94.8708 131.32 94.0237 131.071 93.2834 130.573C92.5573 130.075 91.9807 129.384 91.5536 128.501C91.1408 127.619 90.9344 126.608 90.9344 125.469C90.9344 124.316 91.1408 123.305 91.5536 122.437C91.9807 121.554 92.5573 120.871 93.2834 120.387C94.0237 119.888 94.8708 119.639 95.8246 119.639C96.5364 119.639 97.1699 119.789 97.7252 120.088C98.2804 120.387 98.7502 120.8 99.1346 121.326V115.518H101.804V131ZM98.4726 127.989C98.9993 127.363 99.2627 126.53 99.2627 125.49C99.2627 124.437 98.9993 123.597 98.4726 122.971C97.9601 122.344 97.2838 122.031 96.4439 122.031C95.6324 122.031 94.9633 122.344 94.4365 122.971C93.924 123.597 93.6678 124.437 93.6678 125.49C93.6678 126.53 93.924 127.363 94.4365 127.989C94.9633 128.615 95.6324 128.929 96.4439 128.929C97.2838 128.929 97.9601 128.615 98.4726 127.989ZM104.886 116.137H107.748L107.577 126.366H105.057L104.886 116.137ZM106.317 131.299C105.833 131.299 105.413 131.128 105.057 130.786C104.715 130.431 104.544 130.003 104.544 129.505C104.544 129.007 104.715 128.587 105.057 128.245C105.413 127.904 105.833 127.733 106.317 127.733C106.815 127.733 107.235 127.904 107.577 128.245C107.918 128.587 108.089 129.007 108.089 129.505C108.089 130.003 107.918 130.431 107.577 130.786C107.235 131.128 106.815 131.299 106.317 131.299Z" fill="white"/>
<g clip-path="url(#clip2_254_2938)">
<path d="M137.907 117.7L123.554 132.054L123.55 132.057C123.27 132.332 122.893 132.485 122.5 132.486C122.108 132.486 121.731 132.332 121.45 132.057L121.446 132.054L114.093 124.7L115.847 122.946L116.199 122.593L116.553 122.945L122.499 128.873L135.446 115.946L135.8 115.593L137.907 117.7Z" fill="url(#paint5_linear_254_2938)" stroke="#5B79EE"/>
</g>
</g>
<defs>
<radialGradient id="paint0_radial_254_2938" cx="0" cy="0" r="1" gradientUnits="userSpaceOnUse" gradientTransform="translate(125 95.5) rotate(78.6162) scale(75.9951 115.413)">
<stop stop-color="#E1E5F5"/>
<stop offset="1" stop-color="white"/>
</radialGradient>
<linearGradient id="paint1_linear_254_2938" x1="245" y1="-34.3031" x2="58.0342" y2="79.8182" gradientUnits="userSpaceOnUse">
<stop stop-color="#C7D2FC"/>
<stop offset="1" stop-color="#E1E5F5"/>
</linearGradient>
<linearGradient id="paint2_linear_254_2938" x1="214.697" y1="81.0678" x2="185.606" y2="30.6796" gradientUnits="userSpaceOnUse">
<stop stop-color="#4061E7"/>
<stop offset="1" stop-color="#889FF9"/>
</linearGradient>
<linearGradient id="paint3_linear_254_2938" x1="197.972" y1="172.021" x2="192.106" y2="125.619" gradientUnits="userSpaceOnUse">
<stop stop-color="#4061E7"/>
<stop offset="1" stop-color="#889FF9"/>
</linearGradient>
<linearGradient id="paint4_linear_254_2938" x1="153.595" y1="118.597" x2="8.88444" y2="118.597" gradientUnits="userSpaceOnUse">
<stop stop-color="#C7D2FC"/>
<stop offset="1" stop-color="#A9B9FA"/>
</linearGradient>
<linearGradient id="paint5_linear_254_2938" x1="130.8" y1="129.745" x2="123.013" y2="110.485" gradientUnits="userSpaceOnUse">
<stop stop-color="#4061E7"/>
<stop offset="1" stop-color="#889FF9"/>
</linearGradient>
<clipPath id="clip0_254_2938">
<rect width="280" height="180" fill="white"/>
</clipPath>
<clipPath id="clip1_254_2938">
<path d="M76 36.4694C76 24.6122 85.6122 15 97.4694 15H233.878C245.736 15 255.348 24.6122 255.348 36.4694V213.531C255.348 225.388 245.736 235 233.878 235H97.4694C85.6122 235 76 225.388 76 213.531V36.4694Z" fill="white"/>
</clipPath>
<clipPath id="clip2_254_2938">
<rect width="24" height="24" fill="white" transform="translate(114.5 112)"/>
</clipPath>
</defs>
</svg>
