<svg width="280" height="180" viewBox="0 0 280 180" fill="none" xmlns="http://www.w3.org/2000/svg">
<rect width="280" height="180" fill="url(#paint0_radial_255_3045)"/>
<rect x="68" y="98" width="180" height="52" rx="10" fill="url(#paint1_linear_255_3045)"/>
<path fill-rule="evenodd" clip-rule="evenodd" d="M99.5 115V125.586L101.793 123.293L103.207 124.707L99.207 128.707C99.0195 128.894 98.7652 129 98.5 129C98.2348 129 97.9805 128.894 97.793 128.707L93.793 124.707L95.207 123.293L97.5 125.586V115H99.5ZM87.619 133.636C91.2303 133.209 94.8636 132.997 98.5 133C102.265 133 105.913 133.221 109.381 133.636L109.619 131.65C105.929 131.214 102.216 130.997 98.5 131C94.657 131 90.93 131.226 87.381 131.65L87.619 133.636Z" fill="white"/>
<path d="M121.351 116.637H132.029V119.136H124.191V122.68H131.794V125.179H124.191V129.001H132.135V131.5H121.351V116.637ZM137.572 125.692L133.921 120.46H137.145L139.387 123.855L141.566 120.46H144.641L140.968 125.82L145.025 131.5H141.801L139.174 127.635L136.59 131.5H133.536L137.572 125.692ZM146.62 120.46H149.204V121.933C149.588 121.364 150.065 120.922 150.634 120.609C151.204 120.296 151.859 120.139 152.599 120.139C153.567 120.139 154.414 120.388 155.14 120.887C155.88 121.371 156.457 122.054 156.87 122.937C157.283 123.819 157.489 124.837 157.489 125.99C157.489 127.129 157.283 128.14 156.87 129.023C156.457 129.906 155.88 130.596 155.14 131.094C154.414 131.578 153.567 131.82 152.599 131.82C151.887 131.82 151.254 131.671 150.698 131.372C150.143 131.073 149.673 130.66 149.289 130.133V135.878H146.62V120.46ZM151.98 122.531C151.154 122.531 150.478 122.844 149.951 123.471C149.424 124.097 149.161 124.937 149.161 125.99C149.161 127.03 149.424 127.863 149.951 128.489C150.478 129.115 151.154 129.429 151.98 129.429C152.805 129.429 153.474 129.115 153.987 128.489C154.5 127.863 154.756 127.03 154.756 125.99C154.756 124.937 154.5 124.097 153.987 123.471C153.474 122.844 152.805 122.531 151.98 122.531ZM159.738 129.023C159.269 128.14 159.034 127.122 159.034 125.969C159.034 124.816 159.269 123.805 159.738 122.937C160.208 122.054 160.856 121.371 161.682 120.887C162.522 120.388 163.483 120.139 164.565 120.139C165.647 120.139 166.6 120.388 167.426 120.887C168.252 121.371 168.9 122.054 169.369 122.937C169.839 123.805 170.074 124.816 170.074 125.969C170.074 127.122 169.839 128.14 169.369 129.023C168.9 129.891 168.252 130.575 167.426 131.073C166.6 131.571 165.647 131.82 164.565 131.82C163.483 131.82 162.522 131.571 161.682 131.073C160.856 130.575 160.208 129.891 159.738 129.023ZM167.362 125.969C167.362 124.916 167.099 124.083 166.572 123.471C166.059 122.844 165.39 122.531 164.565 122.531C163.739 122.531 163.063 122.844 162.536 123.471C162.023 124.083 161.767 124.916 161.767 125.969C161.767 127.023 162.023 127.863 162.536 128.489C163.063 129.115 163.739 129.429 164.565 129.429C165.39 129.429 166.059 129.115 166.572 128.489C167.099 127.863 167.362 127.023 167.362 125.969ZM172.27 120.46H174.854V122.317C175.196 121.705 175.63 121.228 176.157 120.887C176.698 120.545 177.303 120.374 177.972 120.374H178.421V122.894H177.908C177.082 122.894 176.385 123.172 175.815 123.727C175.246 124.268 174.961 125.044 174.961 126.055V131.5H172.27V120.46ZM181.401 122.766H179.607V120.46H181.401V117.107C182.327 117.064 183.223 116.915 184.092 116.658V120.46H186.27V122.766H184.092V127.72C184.092 128.759 184.562 129.279 185.501 129.279H186.27V131.585H184.882C183.772 131.585 182.91 131.286 182.298 130.689C181.7 130.076 181.401 129.187 181.401 128.019V122.766ZM193.571 131.286C193.229 130.931 193.058 130.503 193.058 130.005C193.058 129.507 193.229 129.087 193.571 128.745C193.926 128.404 194.346 128.233 194.83 128.233C195.329 128.233 195.749 128.404 196.09 128.745C196.446 129.087 196.624 129.507 196.624 130.005C196.624 130.503 196.446 130.931 196.09 131.286C195.749 131.628 195.329 131.799 194.83 131.799C194.346 131.799 193.926 131.628 193.571 131.286ZM199.277 120.46H201.861V121.677C202.216 121.193 202.651 120.815 203.163 120.545C203.676 120.275 204.245 120.139 204.872 120.139C205.526 120.139 206.11 120.303 206.623 120.63C207.135 120.944 207.548 121.385 207.861 121.954C208.26 121.371 208.758 120.922 209.356 120.609C209.968 120.296 210.616 120.139 211.299 120.139C212.424 120.139 213.314 120.538 213.969 121.335C214.638 122.118 214.972 123.193 214.972 124.56V131.5H212.303V124.901C212.303 124.175 212.139 123.606 211.812 123.193C211.499 122.766 211.05 122.552 210.467 122.552C209.897 122.552 209.42 122.766 209.036 123.193C208.666 123.606 208.481 124.175 208.481 124.901V131.5H205.79V124.901C205.79 124.175 205.626 123.606 205.299 123.193C204.985 122.766 204.544 122.552 203.975 122.552C203.391 122.552 202.907 122.766 202.523 123.193C202.152 123.606 201.967 124.175 201.967 124.901V131.5H199.277V120.46ZM227.941 131.5H225.357V130.027C224.972 130.596 224.496 131.037 223.926 131.351C223.357 131.664 222.702 131.82 221.961 131.82C221.008 131.82 220.16 131.571 219.42 131.073C218.694 130.575 218.118 129.884 217.69 129.001C217.278 128.119 217.071 127.108 217.071 125.969C217.071 124.816 217.278 123.805 217.69 122.937C218.118 122.054 218.694 121.371 219.42 120.887C220.16 120.388 221.008 120.139 221.961 120.139C222.673 120.139 223.307 120.289 223.862 120.588C224.417 120.887 224.887 121.3 225.271 121.826V116.018H227.941V131.5ZM224.609 128.489C225.136 127.863 225.4 127.03 225.4 125.99C225.4 124.937 225.136 124.097 224.609 123.471C224.097 122.844 223.421 122.531 222.581 122.531C221.769 122.531 221.1 122.844 220.573 123.471C220.061 124.097 219.805 124.937 219.805 125.99C219.805 127.03 220.061 127.863 220.573 128.489C221.1 129.115 221.769 129.429 222.581 129.429C223.421 129.429 224.097 129.115 224.609 128.489Z" fill="white"/>
<rect x="31" y="30" width="173" height="52" rx="10" fill="url(#paint2_linear_255_3045)" fill-opacity="0.3"/>
<rect x="31" y="30" width="173" height="52" rx="10" stroke="#ACBBFA" stroke-opacity="0.5" stroke-width="2"/>
<path d="M71 46C71.5304 46 72.0391 46.2107 72.4142 46.5858C72.7893 46.9609 73 47.4696 73 48V58C73 58.5304 72.7893 59.0391 72.4142 59.4142C72.0391 59.7893 71.5304 60 71 60H67V64C67 64.5304 66.7893 65.0391 66.4142 65.4142C66.0391 65.7893 65.5304 66 65 66H55C54.4696 66 53.9609 65.7893 53.5858 65.4142C53.2107 65.0391 53 64.5304 53 64V54C53 53.4696 53.2107 52.9609 53.5858 52.5858C53.9609 52.2107 54.4696 52 55 52H59V48C59 47.4696 59.2107 46.9609 59.5858 46.5858C59.9609 46.2107 60.4696 46 61 46H71ZM55 64H65V54H55V64ZM61 52H65C65.5304 52 66.0391 52.2107 66.4142 52.5858C66.7893 52.9609 67 53.4696 67 54V58H71V48H61V52Z" fill="url(#paint3_linear_255_3045)"/>
<path d="M85.827 60.1046C85.229 58.923 84.9301 57.5776 84.9301 56.0685C84.9301 54.5452 85.229 53.1999 85.827 52.0325C86.4391 50.8651 87.2791 49.954 88.3468 49.2991C89.4288 48.63 90.6674 48.2954 92.0626 48.2954C93.3154 48.2954 94.3902 48.5161 95.2871 48.9574C96.184 49.3987 96.903 50.0109 97.444 50.7939C97.9992 51.5769 98.3765 52.4809 98.5758 53.506H95.6288C95.4437 52.7087 95.0451 52.0681 94.4329 51.584C93.8208 51.1 93.0235 50.858 92.0412 50.858C91.2155 50.858 90.4823 51.0715 89.8417 51.4986C89.2153 51.9257 88.7241 52.5308 88.3682 53.3138C88.0123 54.0825 87.8343 55.0008 87.8343 56.0685C87.8343 57.122 88.0123 58.0403 88.3682 58.8233C88.7241 59.6063 89.2153 60.2114 89.8417 60.6385C90.4823 61.0656 91.2155 61.2791 92.0412 61.2791C93.0235 61.2791 93.8279 61.0513 94.4543 60.5958C95.0807 60.1259 95.4793 59.5067 95.6502 58.7379H98.5758C98.3765 59.7202 97.9992 60.5958 97.444 61.3645C96.903 62.1333 96.184 62.7383 95.2871 63.1797C94.3902 63.621 93.3154 63.8417 92.0626 63.8417C90.6674 63.8417 89.4288 63.5142 88.3468 62.8594C87.2791 62.1902 86.4391 61.272 85.827 60.1046ZM100.855 61.0228C100.386 60.1402 100.151 59.1223 100.151 57.9691C100.151 56.816 100.386 55.8052 100.855 54.9367C101.325 54.0541 101.973 53.3707 102.799 52.8867C103.639 52.3884 104.6 52.1393 105.682 52.1393C106.764 52.1393 107.717 52.3884 108.543 52.8867C109.369 53.3707 110.017 54.0541 110.486 54.9367C110.956 55.8052 111.191 56.816 111.191 57.9691C111.191 59.1223 110.956 60.1402 110.486 61.0228C110.017 61.8913 109.369 62.5746 108.543 63.0729C107.717 63.5712 106.764 63.8203 105.682 63.8203C104.6 63.8203 103.639 63.5712 102.799 63.0729C101.973 62.5746 101.325 61.8913 100.855 61.0228ZM108.479 57.9691C108.479 56.9156 108.216 56.0828 107.689 55.4706C107.176 54.8442 106.507 54.531 105.682 54.531C104.856 54.531 104.18 54.8442 103.653 55.4706C103.14 56.0828 102.884 56.9156 102.884 57.9691C102.884 59.0226 103.14 59.8626 103.653 60.489C104.18 61.1154 104.856 61.4286 105.682 61.4286C106.507 61.4286 107.176 61.1154 107.689 60.489C108.216 59.8626 108.479 59.0226 108.479 57.9691ZM113.387 52.4596H115.971V53.9331C116.356 53.3636 116.833 52.9223 117.402 52.6091C117.971 52.2959 118.626 52.1393 119.367 52.1393C120.335 52.1393 121.182 52.3884 121.908 52.8867C122.648 53.3707 123.225 54.0541 123.638 54.9367C124.05 55.8194 124.257 56.8373 124.257 57.9905C124.257 59.1294 124.05 60.1402 123.638 61.0228C123.225 61.9055 122.648 62.596 121.908 63.0943C121.182 63.5783 120.335 63.8203 119.367 63.8203C118.655 63.8203 118.021 63.6708 117.466 63.3719C116.911 63.0729 116.441 62.66 116.057 62.1333V67.8777H113.387V52.4596ZM118.747 54.531C117.922 54.531 117.245 54.8442 116.719 55.4706C116.192 56.097 115.929 56.937 115.929 57.9905C115.929 59.0297 116.192 59.8626 116.719 60.489C117.245 61.1154 117.922 61.4286 118.747 61.4286C119.573 61.4286 120.242 61.1154 120.755 60.489C121.267 59.8626 121.523 59.0297 121.523 57.9905C121.523 56.937 121.267 56.097 120.755 55.4706C120.242 54.8442 119.573 54.531 118.747 54.531ZM130.294 67.8777H127.433L129.248 63.5L124.892 52.4596H127.945L130.722 60.3608L133.434 52.4596H136.316L130.294 67.8777ZM143.135 60.1046C142.537 58.923 142.238 57.5776 142.238 56.0685C142.238 54.5452 142.537 53.1999 143.135 52.0325C143.747 50.8651 144.587 49.954 145.654 49.2991C146.736 48.63 147.975 48.2954 149.37 48.2954C150.623 48.2954 151.698 48.5161 152.595 48.9574C153.492 49.3987 154.211 50.0109 154.752 50.7939C155.307 51.5769 155.684 52.4809 155.883 53.506H152.936C152.751 52.7087 152.353 52.0681 151.74 51.584C151.128 51.1 150.331 50.858 149.349 50.858C148.523 50.858 147.79 51.0715 147.149 51.4986C146.523 51.9257 146.032 52.5308 145.676 53.3138C145.32 54.0825 145.142 55.0008 145.142 56.0685C145.142 57.122 145.32 58.0403 145.676 58.8233C146.032 59.6063 146.523 60.2114 147.149 60.6385C147.79 61.0656 148.523 61.2791 149.349 61.2791C150.331 61.2791 151.135 61.0513 151.762 60.5958C152.388 60.1259 152.787 59.5067 152.958 58.7379H155.883C155.684 59.7202 155.307 60.5958 154.752 61.3645C154.211 62.1333 153.492 62.7383 152.595 63.1797C151.698 63.621 150.623 63.8417 149.37 63.8417C147.975 63.8417 146.736 63.5142 145.654 62.8594C144.587 62.1902 143.747 61.272 143.135 60.1046ZM169.438 59.165C169.438 60.1615 169.189 61.0086 168.691 61.7062C168.193 62.4038 167.502 62.9377 166.619 63.3078C165.751 63.6637 164.754 63.8417 163.63 63.8417C161.907 63.8417 160.505 63.4431 159.423 62.6458C158.341 61.8486 157.636 60.7452 157.309 59.3358H160.17C160.355 59.948 160.747 60.4391 161.345 60.8093C161.957 61.1794 162.704 61.3645 163.587 61.3645C164.441 61.3645 165.146 61.1937 165.701 60.852C166.256 60.5103 166.534 60.0334 166.534 59.4212C166.534 59.0511 166.456 58.7379 166.299 58.4816C166.143 58.2111 165.851 57.9833 165.424 57.7983C164.996 57.599 164.377 57.4352 163.566 57.3071L161.9 57.0295C160.505 56.7875 159.458 56.3461 158.761 55.7055C158.078 55.0506 157.736 54.111 157.736 52.8867C157.736 51.9471 157.985 51.1356 158.483 50.4522C158.982 49.7546 159.658 49.2208 160.512 48.8506C161.38 48.4805 162.348 48.2954 163.416 48.2954C164.968 48.2954 166.271 48.6655 167.324 49.4058C168.378 50.1319 169.018 51.1925 169.246 52.5877H166.385C166.242 51.9755 165.915 51.52 165.402 51.221C164.904 50.922 164.256 50.7726 163.459 50.7726C162.59 50.7726 161.9 50.9434 161.388 51.2851C160.875 51.6125 160.619 52.0681 160.619 52.6518C160.619 53.1643 160.811 53.5629 161.195 53.8476C161.58 54.1324 162.327 54.3673 163.438 54.5523L165.039 54.83C167.972 55.314 169.438 56.759 169.438 59.165ZM183.077 59.165C183.077 60.1615 182.828 61.0086 182.33 61.7062C181.831 62.4038 181.141 62.9377 180.258 63.3078C179.39 63.6637 178.393 63.8417 177.268 63.8417C175.546 63.8417 174.144 63.4431 173.062 62.6458C171.98 61.8486 171.275 60.7452 170.947 59.3358H173.809C173.994 59.948 174.386 60.4391 174.983 60.8093C175.596 61.1794 176.343 61.3645 177.226 61.3645C178.08 61.3645 178.785 61.1937 179.34 60.852C179.895 60.5103 180.173 60.0334 180.173 59.4212C180.173 59.0511 180.094 58.7379 179.938 58.4816C179.781 58.2111 179.489 57.9833 179.062 57.7983C178.635 57.599 178.016 57.4352 177.204 57.3071L175.539 57.0295C174.144 56.7875 173.097 56.3461 172.4 55.7055C171.716 55.0506 171.375 54.111 171.375 52.8867C171.375 51.9471 171.624 51.1356 172.122 50.4522C172.62 49.7546 173.296 49.2208 174.151 48.8506C175.019 48.4805 175.987 48.2954 177.055 48.2954C178.607 48.2954 179.909 48.6655 180.963 49.4058C182.016 50.1319 182.657 51.1925 182.885 52.5877H180.023C179.881 51.9755 179.553 51.52 179.041 51.221C178.543 50.922 177.895 50.7726 177.098 50.7726C176.229 50.7726 175.539 50.9434 175.026 51.2851C174.514 51.6125 174.257 52.0681 174.257 52.6518C174.257 53.1643 174.45 53.5629 174.834 53.8476C175.218 54.1324 175.966 54.3673 177.076 54.5523L178.678 54.83C181.611 55.314 183.077 56.759 183.077 59.165Z" fill="url(#paint4_linear_255_3045)"/>
<defs>
<radialGradient id="paint0_radial_255_3045" cx="0" cy="0" r="1" gradientUnits="userSpaceOnUse" gradientTransform="translate(125 95.5) rotate(78.6162) scale(75.9951 115.413)">
<stop stop-color="#E1E5F5"/>
<stop offset="1" stop-color="white"/>
</radialGradient>
<linearGradient id="paint1_linear_255_3045" x1="248.777" y1="118.597" x2="60.0232" y2="118.597" gradientUnits="userSpaceOnUse">
<stop stop-color="#C7D2FC"/>
<stop offset="1" stop-color="#889FF9"/>
</linearGradient>
<linearGradient id="paint2_linear_255_3045" x1="204.747" y1="50.5975" x2="23.3334" y2="50.5975" gradientUnits="userSpaceOnUse">
<stop stop-color="#C7D2FC"/>
<stop offset="1" stop-color="#A9B9FA"/>
</linearGradient>
<linearGradient id="paint3_linear_255_3045" x1="67.2857" y1="63.1429" x2="54.9139" y2="41.7143" gradientUnits="userSpaceOnUse">
<stop stop-color="#4061E7"/>
<stop offset="1" stop-color="#889FF9"/>
</linearGradient>
<linearGradient id="paint4_linear_255_3045" x1="155.429" y1="65.6429" x2="149.559" y2="27.9865" gradientUnits="userSpaceOnUse">
<stop stop-color="#4061E7"/>
<stop offset="1" stop-color="#889FF9"/>
</linearGradient>
</defs>
</svg>
